# Exported from Wings 3D 2.4.1
mtllib Pyramid_Four-Sides_001.mtl
o Cube3
#52 vertices, 50 faces
v -0.44200000 2.29578017 -0.23723155
v -0.23723155 2.29578017 -0.44200000
v -0.44200000 2.29578017 0.23723155
v -0.23723155 2.29578017 0.44200000
v 0.23723155 2.29578017 -0.44200000
v 0.44200000 2.29578017 -0.23723155
v 0.44200000 2.29578017 0.23723155
v 0.23723155 2.29578017 0.44200000
v -0.23723155 2.97501172 -0.44200000
v 0.23723155 2.97501172 -0.44200000
v 0.44200000 2.97501172 -0.23723155
v 0.44200000 2.97501172 0.23723155
v 0.23723155 2.97501172 0.44200000
v -0.23723155 2.97501172 0.44200000
v -0.44200000 2.97501172 0.23723155
v -0.44200000 2.97501172 -0.23723155
v -0.23723155 3.17978017 -0.23723155
v -0.23723155 3.17978017 0.23723155
v 0.23723155 3.17978017 0.23723155
v 0.23723155 3.17978017 -0.23723155
v -0.13901769 2.87679786 0.44200000
v -0.13901769 2.39399403 0.44200000
v 0.13901769 2.39399403 0.44200000
v 0.13901769 2.87679786 0.44200000
v 0.13901769 2.87679786 -0.44200000
v 0.13901769 2.39399403 -0.44200000
v -0.13901769 2.39399403 -0.44200000
v -0.13901769 2.87679786 -0.44200000
v 0.44200000 2.87679786 0.13901769
v 0.44200000 2.39399403 0.13901769
v 0.44200000 2.39399403 -0.13901769
v 0.44200000 2.87679786 -0.13901769
v -0.44200000 2.87679786 -0.13901769
v -0.44200000 2.39399403 -0.13901769
v -0.44200000 2.39399403 0.13901769
v -0.44200000 2.87679786 0.13901769
v -0.36487941 2.87679786 -0.13901769
v -0.36487941 2.39399403 -0.13901769
v -0.36487941 2.39399403 0.13901769
v -0.36487941 2.87679786 0.13901769
v 0.36487941 2.87679786 0.13901769
v 0.36487941 2.39399403 0.13901769
v 0.36487941 2.39399403 -0.13901769
v 0.36487941 2.87679786 -0.13901769
v 0.13901769 2.87679786 -0.36487941
v 0.13901769 2.39399403 -0.36487941
v -0.13901769 2.39399403 -0.36487941
v -0.13901769 2.87679786 -0.36487941
v -0.13901769 2.87679786 0.36487941
v -0.13901769 2.39399403 0.36487941
v 0.13901769 2.39399403 0.36487941
v 0.13901769 2.87679786 0.36487941
vn -0.91109512 -0.33655677 -0.23798157
vn -0.23798157 -0.33655677 -0.91109512
vn -0.91109512 -0.33655677 0.23798157
vn -0.23798157 -0.33655677 0.91109512
vn 0.23798157 -0.33655677 -0.91109512
vn 0.91109512 -0.33655677 -0.23798157
vn 0.91109512 -0.33655677 0.23798157
vn 0.23798157 -0.33655677 0.91109512
vn -0.29289006 0.29289006 -0.91018175
vn 0.29289006 0.29289006 -0.91018175
vn 0.91018175 0.29289006 -0.29289006
vn 0.91018175 0.29289006 0.29289006
vn 0.29289006 0.29289006 0.91018175
vn -0.29289006 0.29289006 0.91018175
vn -0.91018175 0.29289006 0.29289006
vn -0.91018175 0.29289006 -0.29289006
vn -0.36700100 0.85476344 -0.36700100
vn -0.36700100 0.85476344 0.36700100
vn 0.36700100 0.85476344 0.36700100
vn 0.36700100 0.85476344 -0.36700100
vn 0.40824829 -0.40824829 0.81649658
vn 0.40824829 0.40824829 0.81649658
vn -0.40824829 0.40824829 0.81649658
vn -0.40824829 -0.40824829 0.81649658
vn -0.40824829 -0.40824829 -0.81649658
vn -0.40824829 0.40824829 -0.81649658
vn 0.40824829 0.40824829 -0.81649658
vn 0.40824829 -0.40824829 -0.81649658
vn 0.81649658 -0.40824829 -0.40824829
vn 0.81649658 0.40824829 -0.40824829
vn 0.81649658 0.40824829 0.40824829
vn 0.81649658 -0.40824829 0.40824829
vn -0.81649658 -0.40824829 0.40824829
vn -0.81649658 0.40824829 0.40824829
vn -0.81649658 0.40824829 -0.40824829
vn -0.81649658 -0.40824829 -0.40824829
vn -0.57735027 -0.57735027 0.57735027
vn -0.57735027 0.57735027 0.57735027
vn -0.57735027 0.57735027 -0.57735027
vn -0.57735027 -0.57735027 -0.57735027
vn 0.57735027 -0.57735027 -0.57735027
vn 0.57735027 0.57735027 -0.57735027
vn 0.57735027 0.57735027 0.57735027
vn 0.57735027 -0.57735027 0.57735027
vn -0.57735027 -0.57735027 -0.57735027
vn -0.57735027 0.57735027 -0.57735027
vn 0.57735027 0.57735027 -0.57735027
vn 0.57735027 -0.57735027 -0.57735027
vn 0.57735027 -0.57735027 0.57735027
vn 0.57735027 0.57735027 0.57735027
vn -0.57735027 0.57735027 0.57735027
vn -0.57735027 -0.57735027 0.57735027
g Cube3_default
usemtl default
s 1
f 1//1 2//2 5//5 6//6 7//7 8//8 4//4 3//3
f 1//1 16//16 9//9 2//2
f 1//1 34//34 33//33 16//16
f 2//2 27//27 26//26 5//5
f 3//3 35//35 34//34 1//1
f 4//4 22//22 21//21 14//14
f 5//5 26//26 25//25 10//10
f 6//6 31//31 30//30 7//7
f 7//7 12//12 13//13 8//8
f 7//7 30//30 29//29 12//12
f 8//8 23//23 22//22 4//4
f 9//9 17//17 20//20 10//10
f 9//9 28//28 27//27 2//2
f 10//10 11//11 6//6 5//5
f 10//10 25//25 28//28 9//9
f 11//11 20//20 19//19 12//12
f 11//11 32//32 31//31 6//6
f 12//12 29//29 32//32 11//11
f 13//13 19//19 18//18 14//14
f 13//13 24//24 23//23 8//8
f 14//14 15//15 3//3 4//4
f 14//14 21//21 24//24 13//13
f 15//15 18//18 17//17 16//16
f 15//15 36//36 35//35 3//3
f 16//16 17//17 9//9
f 16//16 33//33 36//36 15//15
f 18//18 15//15 14//14
f 18//18 19//19 20//20 17//17
f 19//19 13//13 12//12
f 20//20 11//11 10//10
f 21//21 49//49 52//52 24//24
f 22//22 50//50 49//49 21//21
f 23//23 51//51 50//50 22//22
f 24//24 52//52 51//51 23//23
f 25//25 45//45 48//48 28//28
f 26//26 46//46 45//45 25//25
f 27//27 47//47 46//46 26//26
f 28//28 48//48 47//47 27//27
f 29//29 41//41 44//44 32//32
f 30//30 42//42 41//41 29//29
f 31//31 43//43 42//42 30//30
f 32//32 44//44 43//43 31//31
f 33//33 37//37 40//40 36//36
f 34//34 38//38 37//37 33//33
f 35//35 39//39 38//38 34//34
f 36//36 40//40 39//39 35//35
f 38//38 39//39 40//40 37//37
f 42//42 43//43 44//44 41//41
f 46//46 47//47 48//48 45//45
f 50//50 51//51 52//52 49//49
o Cube1_extract2
#24 vertices, 18 faces
v -0.75121580 0.0000000e+0 0.75121580
v -0.75121580 0.0000000e+0 0.75121580
v 0.75121580 0.0000000e+0 0.75121580
v 0.75121580 0.0000000e+0 0.75121580
v 0.75121580 0.0000000e+0 -0.75121580
v 0.75121580 0.0000000e+0 -0.75121580
v -0.75121580 0.0000000e+0 -0.75121580
v -0.75121580 0.0000000e+0 -0.75121580
v -0.75121580 0.54272000 0.75121580
v -0.75121580 0.54272000 0.75121580
v 0.75121580 0.54272000 0.75121580
v 0.75121580 0.54272000 0.75121580
v 0.75121580 0.54272000 -0.75121580
v 0.75121580 0.54272000 -0.75121580
v -0.75121580 0.54272000 -0.75121580
v -0.75121580 0.54272000 -0.75121580
v -0.75121580 0.54272000 0.75121580
v -0.75121580 0.54272000 0.75121580
v 0.75121580 0.54272000 0.75121580
v 0.75121580 0.54272000 0.75121580
v 0.75121580 0.54272000 -0.75121580
v 0.75121580 0.54272000 -0.75121580
v -0.75121580 0.54272000 -0.75121580
v -0.75121580 0.54272000 -0.75121580
vn -0.70710678 -0.70710678 0.0000000e+0
vn 0.0000000e+0 -0.70710678 0.70710678
vn 0.0000000e+0 -0.70710678 0.70710678
vn 0.70710678 -0.70710678 0.0000000e+0
vn 0.70710678 -0.70710678 0.0000000e+0
vn 0.0000000e+0 -0.70710678 -0.70710678
vn 0.0000000e+0 -0.70710678 -0.70710678
vn -0.70710678 -0.70710678 0.0000000e+0
vn -1.00000000 0.0000000e+0 0.0000000e+0
vn 0.0000000e+0 0.0000000e+0 1.00000000
vn 0.0000000e+0 0.0000000e+0 1.00000000
vn 1.00000000 0.0000000e+0 0.0000000e+0
vn 1.00000000 0.0000000e+0 0.0000000e+0
vn 0.0000000e+0 0.0000000e+0 -1.00000000
vn 0.0000000e+0 0.0000000e+0 -1.00000000
vn -1.00000000 0.0000000e+0 0.0000000e+0
vn 0.0000000e+0 1.00000000 0.0000000e+0
vn 0.0000000e+0 1.00000000 0.0000000e+0
vn 0.0000000e+0 1.00000000 0.0000000e+0
vn 0.0000000e+0 1.00000000 0.0000000e+0
vn 0.0000000e+0 1.00000000 0.0000000e+0
vn 0.0000000e+0 1.00000000 0.0000000e+0
vn 0.0000000e+0 1.00000000 0.0000000e+0
vn 0.0000000e+0 1.00000000 0.0000000e+0
g Cube1_extract2_default
usemtl default
s 1
f 53//53 60//60 59//59 58//58 57//57 56//56 55//55 54//54
f 53//53 61//61 68//68 60//60
f 54//54 62//62 61//61 53//53
f 55//55 63//63 62//62 54//54
f 56//56 64//64 63//63 55//55
f 57//57 65//65 64//64 56//56
f 58//58 66//66 65//65 57//57
f 59//59 67//67 66//66 58//58
f 60//60 68//68 67//67 59//59
f 62//62 63//63 71//71 70//70
f 63//63 64//64 72//72 71//71
f 64//64 65//65 73//73 72//72
f 65//65 66//66 74//74 73//73
f 66//66 67//67 75//75 74//74
f 67//67 68//68 76//76 75//75
f 68//68 61//61 69//69 76//76
f 70//70 69//69 61//61 62//62
f 70//70 71//71 72//72 73//73 74//74 75//75 76//76 69//69
o Cube1
#80 vertices, 74 faces
v -2.29200000 -0.29317272 -2.18345600
v -2.18345600 -0.29317272 -2.29200000
v -2.29200000 -0.29317272 2.18345600
v -2.18345600 -0.29317272 2.29200000
v 2.18345600 -0.29317272 -2.29200000
v 2.29200000 -0.29317272 -2.18345600
v 2.29200000 -0.29317272 2.18345600
v 2.18345600 -0.29317272 2.29200000
v -1.03027957 1.65995488 -0.92173557
v -0.92173557 1.65995488 -1.03027957
v -1.03027957 1.65995488 0.92173557
v -0.92173557 1.65995488 1.03027957
v 0.92173557 1.65995488 -1.03027957
v 1.03027957 1.65995488 -0.92173557
v 0.92173557 1.65995488 1.03027957
v 1.03027957 1.65995488 0.92173557
v -0.93651200 1.70682728 -0.82796800
v -0.82796800 1.70682728 -0.93651200
v -0.82796800 1.70682728 0.93651200
v -0.93651200 1.70682728 0.82796800
v 0.93651200 1.70682728 0.82796800
v 0.82796800 1.70682728 0.93651200
v 0.82796800 1.70682728 -0.93651200
v 0.93651200 1.70682728 -0.82796800
v -0.79978125 1.70682728 0.77133227
v -0.77133227 1.70682728 0.79978125
v 0.77133227 1.70682728 0.79978125
v 0.79978125 1.70682728 0.77133227
v 0.79978125 1.70682728 -0.77133227
v 0.77133227 1.70682728 -0.79978125
v -0.77133227 1.70682728 -0.79978125
v -0.79978125 1.70682728 -0.77133227
v -0.79978125 1.61671528 0.77133227
v -0.77133227 1.61671528 0.79978125
v 0.77133227 1.61671528 0.79978125
v 0.79978125 1.61671528 0.77133227
v 0.79978125 1.61671528 -0.77133227
v 0.77133227 1.61671528 -0.79978125
v -0.77133227 1.61671528 -0.79978125
v -0.79978125 1.61671528 -0.77133227
v -0.76496525 1.58189928 0.75691101
v -0.75691101 1.58189928 0.76496525
v 0.75691101 1.58189928 0.76496525
v 0.76496525 1.58189928 0.75691101
v 0.76496525 1.58189928 -0.75691101
v 0.75691101 1.58189928 -0.76496525
v -0.75691101 1.58189928 -0.76496525
v -0.76496525 1.58189928 -0.75691101
v -0.76496525 2.33205383 0.75691101
v -0.75691101 2.33205383 0.76496525
v 0.75691101 2.33205383 0.76496525
v 0.76496525 2.33205383 0.75691101
v 0.76496525 2.33205383 -0.75691101
v 0.75691101 2.33205383 -0.76496525
v -0.75691101 2.33205383 -0.76496525
v -0.76496525 2.33205383 -0.75691101
v -0.75121580 2.34580328 0.75121580
v -0.75121580 2.34580328 0.75121580
v 0.75121580 2.34580328 0.75121580
v 0.75121580 2.34580328 0.75121580
v 0.75121580 2.34580328 -0.75121580
v 0.75121580 2.34580328 -0.75121580
v -0.75121580 2.34580328 -0.75121580
v -0.75121580 2.34580328 -0.75121580
v -0.67514416 1.66366612 0.76496525
v 0.67514416 1.66366612 0.76496525
v 0.67514416 2.25028698 0.76496525
v -0.67514416 2.25028698 0.76496525
v 0.76496525 1.66366612 0.67514416
v 0.76496525 1.66366612 -0.67514416
v 0.76496525 2.25028698 -0.67514416
v 0.76496525 2.25028698 0.67514416
v 0.67514416 1.66366612 -0.76496525
v -0.67514416 1.66366612 -0.76496525
v -0.67514416 2.25028698 -0.76496525
v 0.67514416 2.25028698 -0.76496525
v -0.76496525 1.66366612 -0.67514416
v -0.76496525 1.66366612 0.67514416
v -0.76496525 2.25028698 0.67514416
v -0.76496525 2.25028698 -0.67514416
vn -0.92358534 0.14722207 -0.35399970
vn -0.35399970 0.14722207 -0.92358534
vn -0.92358534 0.14722207 0.35399970
vn -0.35399970 0.14722207 0.92358534
vn 0.35399970 0.14722207 -0.92358534
vn 0.92358534 0.14722207 -0.35399970
vn 0.92358534 0.14722207 0.35399970
vn 0.35399970 0.14722207 0.92358534
vn -0.54484908 0.81386642 -0.20189335
vn -0.20189335 0.81386642 -0.54484908
vn -0.54484908 0.81386642 0.20189335
vn -0.20189335 0.81386642 0.54484908
vn 0.20189335 0.81386642 -0.54484908
vn 0.54484908 0.81386642 -0.20189335
vn 0.20189335 0.81386642 0.54484908
vn 0.54484908 0.81386642 0.20189335
vn -0.17486088 0.98274180 -6.0350805e-2
vn -6.0350805e-2 0.98274180 -0.17486088
vn -6.0350805e-2 0.98274180 0.17486088
vn -0.17486088 0.98274180 6.0350805e-2
vn 0.17486088 0.98274180 6.0350805e-2
vn 6.0350805e-2 0.98274180 0.17486088
vn 6.0350805e-2 0.98274180 -0.17486088
vn 0.17486088 0.98274180 -6.0350805e-2
vn 0.62694312 0.73450956 -0.25968834
vn 0.25968834 0.73450956 -0.62694312
vn -0.25968834 0.73450956 -0.62694312
vn -0.62694312 0.73450956 -0.25968834
vn -0.62694312 0.73450956 0.25968834
vn -0.25968834 0.73450956 0.62694312
vn 0.25968834 0.73450956 0.62694312
vn 0.62694312 0.73450956 0.25968834
vn 0.84302802 0.40910580 -0.34919364
vn 0.34919364 0.40910580 -0.84302802
vn -0.34919364 0.40910580 -0.84302802
vn -0.84302802 0.40910580 -0.34919364
vn -0.84302802 0.40910580 0.34919364
vn -0.34919364 0.40910580 0.84302802
vn 0.34919364 0.40910580 0.84302802
vn 0.84302802 0.40910580 0.34919364
vn -0.72396274 0.68255862 9.9958395e-2
vn -9.9958395e-2 0.68255862 0.72396274
vn 9.9958395e-2 0.68255862 0.72396274
vn 0.72396274 0.68255862 9.9958395e-2
vn 0.72396274 0.68255862 -9.9958395e-2
vn 9.9958395e-2 0.68255862 -0.72396274
vn -9.9958395e-2 0.68255862 -0.72396274
vn -0.72396274 0.68255862 -9.9958395e-2
vn -0.90327051 0.32635353 0.27856016
vn -0.27856016 0.32635353 0.90327051
vn 0.27856016 0.32635353 0.90327051
vn 0.90327051 0.32635353 0.27856016
vn 0.90327051 0.32635353 -0.27856016
vn 0.27856016 0.32635353 -0.90327051
vn -0.27856016 0.32635353 -0.90327051
vn -0.90327051 0.32635353 -0.27856016
vn -0.43973261 0.87946522 0.18214321
vn -0.18214321 0.87946522 0.43973261
vn 0.18214321 0.87946522 0.43973261
vn 0.43973261 0.87946522 0.18214321
vn 0.43973261 0.87946522 -0.18214321
vn 0.18214321 0.87946522 -0.43973261
vn -0.18214321 0.87946522 -0.43973261
vn -0.43973261 0.87946522 -0.18214321
vn 0.0000000e+0 0.0000000e+0 1.00000000
vn 0.0000000e+0 0.0000000e+0 1.00000000
vn 0.0000000e+0 0.0000000e+0 1.00000000
vn 0.0000000e+0 0.0000000e+0 1.00000000
vn 1.00000000 0.0000000e+0 0.0000000e+0
vn 1.00000000 0.0000000e+0 0.0000000e+0
vn 1.00000000 0.0000000e+0 0.0000000e+0
vn 1.00000000 0.0000000e+0 0.0000000e+0
vn 0.0000000e+0 0.0000000e+0 -1.00000000
vn 0.0000000e+0 0.0000000e+0 -1.00000000
vn 0.0000000e+0 0.0000000e+0 -1.00000000
vn 0.0000000e+0 0.0000000e+0 -1.00000000
vn -1.00000000 0.0000000e+0 0.0000000e+0
vn -1.00000000 0.0000000e+0 0.0000000e+0
vn -1.00000000 0.0000000e+0 0.0000000e+0
vn -1.00000000 0.0000000e+0 0.0000000e+0
g Cube1_default
usemtl default
s 1
f 77//77 78//78 81//81 82//82 83//83 84//84 80//80 79//79
f 78//78 86//86 89//89 81//81
f 79//79 87//87 85//85 77//77
f 82//82 90//90 92//92 83//83
f 84//84 91//91 88//88 80//80
f 85//85 93//93 94//94 86//86
f 86//86 78//78 77//77 85//85
f 86//86 94//94 99//99 89//89
f 87//87 79//79 80//80 88//88
f 87//87 96//96 93//93 85//85
f 88//88 95//95 96//96 87//87
f 89//89 99//99 100//100 90//90
f 90//90 82//82 81//81 89//89
f 90//90 100//100 97//97 92//92
f 91//91 84//84 83//83 92//92
f 91//91 98//98 95//95 88//88
f 92//92 97//97 98//98 91//91
f 93//93 108//108 107//107 94//94
f 94//94 107//107 106//106 99//99
f 95//95 102//102 101//101 96//96
f 96//96 101//101 108//108 93//93
f 97//97 104//104 103//103 98//98
f 98//98 103//103 102//102 95//95
f 99//99 106//106 105//105 100//100
f 100//100 105//105 104//104 97//97
f 101//101 109//109 116//116 108//108
f 102//102 110//110 109//109 101//101
f 103//103 111//111 110//110 102//102
f 104//104 112//112 111//111 103//103
f 105//105 113//113 112//112 104//104
f 106//106 114//114 113//113 105//105
f 107//107 115//115 114//114 106//106
f 108//108 116//116 115//115 107//107
f 110//110 111//111 119//119 118//118
f 111//111 112//112 120//120 119//119
f 112//112 113//113 121//121 120//120
f 113//113 114//114 122//122 121//121
f 114//114 115//115 123//123 122//122
f 115//115 116//116 124//124 123//123
f 116//116 109//109 117//117 124//124
f 117//117 154//154 153//153 124//124
f 118//118 117//117 109//109 110//110
f 118//118 126//126 125//125 117//117
f 118//118 141//141 144//144 126//126
f 119//119 142//142 141//141 118//118
f 120//120 128//128 127//127 119//119
f 120//120 145//145 148//148 128//128
f 121//121 146//146 145//145 120//120
f 122//122 130//130 129//129 121//121
f 122//122 149//149 152//152 130//130
f 123//123 150//150 149//149 122//122
f 124//124 132//132 131//131 123//123
f 124//124 153//153 156//156 132//132
f 125//125 155//155 154//154 117//117
f 126//126 127//127 135//135 134//134
f 126//126 144//144 143//143 127//127
f 127//127 128//128 136//136 135//135
f 127//127 143//143 142//142 119//119
f 128//128 129//129 137//137 136//136
f 128//128 148//148 147//147 129//129
f 129//129 130//130 138//138 137//137
f 129//129 147//147 146//146 121//121
f 130//130 131//131 139//139 138//138
f 130//130 152//152 151//151 131//131
f 131//131 132//132 140//140 139//139
f 131//131 151//151 150//150 123//123
f 132//132 125//125 133//133 140//140
f 132//132 156//156 155//155 125//125
f 134//134 133//133 125//125 126//126
f 134//134 135//135 136//136 137//137 138//138 139//139 140//140 133//133
f 142//142 143//143 144//144 141//141
f 146//146 147//147 148//148 145//145
f 150//150 151//151 152//152 149//149
f 154//154 155//155 156//156 153//153
