# Exported from Wings 3D 2.4.1
mtllib Radio-Tower.mtl
o sphere2
#114 vertices, 128 faces
v 0.38268343 0.92387953 0.0000000e+0
v 0.35355339 0.92387953 0.14644661
v 0.27059805 0.92387953 0.27059805
v 0.14644661 0.92387953 0.35355339
v 2.3432602e-17 0.92387953 0.38268343
v -0.14644661 0.92387953 0.35355339
v -0.27059805 0.92387953 0.27059805
v -0.35355339 0.92387953 0.14644661
v -0.38268343 0.92387953 4.6865204e-17
v -0.35355339 0.92387953 -0.14644661
v -0.27059805 0.92387953 -0.27059805
v -0.14644661 0.92387953 -0.35355339
v -7.0297806e-17 0.92387953 -0.38268343
v 0.14644661 0.92387953 -0.35355339
v 0.27059805 0.92387953 -0.27059805
v 0.35355339 0.92387953 -0.14644661
v 0.70710678 0.70710678 0.0000000e+0
v 0.65328148 0.70710678 0.27059805
v 0.50000000 0.70710678 0.50000000
v 0.27059805 0.70710678 0.65328148
v 4.3297803e-17 0.70710678 0.70710678
v -0.27059805 0.70710678 0.65328148
v -0.50000000 0.70710678 0.50000000
v -0.65328148 0.70710678 0.27059805
v -0.70710678 0.70710678 8.6595606e-17
v -0.65328148 0.70710678 -0.27059805
v -0.50000000 0.70710678 -0.50000000
v -0.27059805 0.70710678 -0.65328148
v -1.2989341e-16 0.70710678 -0.70710678
v 0.27059805 0.70710678 -0.65328148
v 0.50000000 0.70710678 -0.50000000
v 0.65328148 0.70710678 -0.27059805
v 0.92387953 0.38268343 0.0000000e+0
v 0.85355339 0.38268343 0.35355339
v 0.65328148 0.38268343 0.65328148
v 0.35355339 0.38268343 0.85355339
v 5.6571306e-17 0.38268343 0.92387953
v -0.35355339 0.38268343 0.85355339
v -0.65328148 0.38268343 0.65328148
v -0.85355339 0.38268343 0.35355339
v -0.92387953 0.38268343 1.1314261e-16
v -0.85355339 0.38268343 -0.35355339
v -0.65328148 0.38268343 -0.65328148
v -0.35355339 0.38268343 -0.85355339
v -1.6971392e-16 0.38268343 -0.92387953
v 0.35355339 0.38268343 -0.85355339
v 0.65328148 0.38268343 -0.65328148
v 0.85355339 0.38268343 -0.35355339
v 1.00000000 6.1232340e-17 0.0000000e+0
v 0.92387953 6.1232340e-17 0.38268343
v 0.70710678 6.1232340e-17 0.70710678
v 0.38268343 6.1232340e-17 0.92387953
v 6.1232340e-17 6.1232340e-17 1.00000000
v -0.38268343 6.1232340e-17 0.92387953
v -0.70710678 6.1232340e-17 0.70710678
v -0.92387953 6.1232340e-17 0.38268343
v -1.00000000 6.1232340e-17 1.2246468e-16
v -0.92387953 6.1232340e-17 -0.38268343
v -0.70710678 6.1232340e-17 -0.70710678
v -0.38268343 6.1232340e-17 -0.92387953
v -1.8369702e-16 6.1232340e-17 -1.00000000
v 0.38268343 6.1232340e-17 -0.92387953
v 0.70710678 6.1232340e-17 -0.70710678
v 0.92387953 6.1232340e-17 -0.38268343
v 0.92387953 -0.38268343 0.0000000e+0
v 0.85355339 -0.38268343 0.35355339
v 0.65328148 -0.38268343 0.65328148
v 0.35355339 -0.38268343 0.85355339
v 5.6571306e-17 -0.38268343 0.92387953
v -0.35355339 -0.38268343 0.85355339
v -0.65328148 -0.38268343 0.65328148
v -0.85355339 -0.38268343 0.35355339
v -0.92387953 -0.38268343 1.1314261e-16
v -0.85355339 -0.38268343 -0.35355339
v -0.65328148 -0.38268343 -0.65328148
v -0.35355339 -0.38268343 -0.85355339
v -1.6971392e-16 -0.38268343 -0.92387953
v 0.35355339 -0.38268343 -0.85355339
v 0.65328148 -0.38268343 -0.65328148
v 0.85355339 -0.38268343 -0.35355339
v 0.70710678 -0.70710678 0.0000000e+0
v 0.65328148 -0.70710678 0.27059805
v 0.50000000 -0.70710678 0.50000000
v 0.27059805 -0.70710678 0.65328148
v 4.3297803e-17 -0.70710678 0.70710678
v -0.27059805 -0.70710678 0.65328148
v -0.50000000 -0.70710678 0.50000000
v -0.65328148 -0.70710678 0.27059805
v -0.70710678 -0.70710678 8.6595606e-17
v -0.65328148 -0.70710678 -0.27059805
v -0.50000000 -0.70710678 -0.50000000
v -0.27059805 -0.70710678 -0.65328148
v -1.2989341e-16 -0.70710678 -0.70710678
v 0.27059805 -0.70710678 -0.65328148
v 0.50000000 -0.70710678 -0.50000000
v 0.65328148 -0.70710678 -0.27059805
v 0.38268343 -0.92387953 0.0000000e+0
v 0.35355339 -0.92387953 0.14644661
v 0.27059805 -0.92387953 0.27059805
v 0.14644661 -0.92387953 0.35355339
v 2.3432602e-17 -0.92387953 0.38268343
v -0.14644661 -0.92387953 0.35355339
v -0.27059805 -0.92387953 0.27059805
v -0.35355339 -0.92387953 0.14644661
v -0.38268343 -0.92387953 4.6865204e-17
v -0.35355339 -0.92387953 -0.14644661
v -0.27059805 -0.92387953 -0.27059805
v -0.14644661 -0.92387953 -0.35355339
v -7.0297806e-17 -0.92387953 -0.38268343
v 0.14644661 -0.92387953 -0.35355339
v 0.27059805 -0.92387953 -0.27059805
v 0.35355339 -0.92387953 -0.14644661
v 0.0000000e+0 1.00000000 0.0000000e+0
v 0.0000000e+0 -1.00000000 0.0000000e+0
vn 0.38219484 0.92408176 -9.9385732e-17
vn 0.35310199 0.92408176 0.14625963
vn 0.27025256 0.92408176 0.27025256
vn 0.14625963 0.92408176 0.35310199
vn 0.0000000e+0 0.92408176 0.38219484
vn -0.14625963 0.92408176 0.35310199
vn -0.27025256 0.92408176 0.27025256
vn -0.35310199 0.92408176 0.14625963
vn -0.38219484 0.92408176 4.6143376e-17
vn -0.35310199 0.92408176 -0.14625963
vn -0.27025256 0.92408176 -0.27025256
vn -0.14625963 0.92408176 -0.35310199
vn -4.2593885e-17 0.92408176 -0.38219484
vn 0.14625963 0.92408176 -0.35310199
vn 0.27025256 0.92408176 -0.27025256
vn 0.35310199 0.92408176 -0.14625963
vn 0.70658450 0.70762868 -5.7154588e-17
vn 0.65279895 0.70762868 0.27039818
vn 0.49963069 0.70762868 0.49963069
vn 0.27039818 0.70762868 0.65279895
vn 7.1443235e-18 0.70762868 0.70658450
vn -0.27039818 0.70762868 0.65279895
vn -0.49963069 0.70762868 0.49963069
vn -0.65279895 0.70762868 0.27039818
vn -0.70658450 0.70762868 1.3574215e-16
vn -0.65279895 0.70762868 -0.27039818
vn -0.49963069 0.70762868 -0.49963069
vn -0.27039818 0.70762868 -0.65279895
vn -5.7154588e-17 0.70762868 -0.70658450
vn 0.27039818 0.70762868 -0.65279895
vn 0.49963069 0.70762868 -0.49963069
vn 0.65279895 0.70762868 -0.27039818
vn 0.92368212 0.38315969 -1.1503246e-16
vn 0.85337100 0.38315969 0.35347784
vn 0.65314189 0.38315969 0.65314189
vn 0.35347784 0.38315969 0.85337100
vn 7.1895288e-18 0.38315969 0.92368212
vn -0.35347784 0.38315969 0.85337100
vn -0.65314189 0.38315969 0.65314189
vn -0.85337100 0.38315969 0.35347784
vn -0.92368212 0.38315969 1.4379058e-16
vn -0.85337100 0.38315969 -0.35347784
vn -0.65314189 0.38315969 -0.65314189
vn -0.35347784 0.38315969 -0.85337100
vn -1.0784293e-16 0.38315969 -0.92368212
vn 0.35347784 0.38315969 -0.85337100
vn 0.65314189 0.38315969 -0.65314189
vn 0.85337100 0.38315969 -0.35347784
vn 1.00000000 0.0000000e+0 -1.5858068e-16
vn 0.92387953 7.2082126e-18 0.38268343
vn 0.70710678 -7.2082126e-18 0.70710678
vn 0.38268343 0.0000000e+0 0.92387953
vn 0.0000000e+0 0.0000000e+0 1.00000000
vn -0.38268343 0.0000000e+0 0.92387953
vn -0.70710678 7.2082126e-18 0.70710678
vn -0.92387953 -7.2082126e-18 0.38268343
vn -1.00000000 0.0000000e+0 1.1533140e-16
vn -0.92387953 -7.2082126e-18 -0.38268343
vn -0.70710678 -7.2082126e-18 -0.70710678
vn -0.38268343 -7.2082126e-18 -0.92387953
vn -1.4416425e-16 7.2082126e-18 -1.00000000
vn 0.38268343 0.0000000e+0 -0.92387953
vn 0.70710678 7.2082126e-18 -0.70710678
vn 0.92387953 7.2082126e-18 -0.38268343
vn 0.92368212 -0.38315969 -1.2941152e-16
vn 0.85337100 -0.38315969 0.35347784
vn 0.65314189 -0.38315969 0.65314189
vn 0.35347784 -0.38315969 0.85337100
vn 0.0000000e+0 -0.38315969 0.92368212
vn -0.35347784 -0.38315969 0.85337100
vn -0.65314189 -0.38315969 0.65314189
vn -0.85337100 -0.38315969 0.35347784
vn -0.92368212 -0.38315969 1.4379058e-16
vn -0.85337100 -0.38315969 -0.35347784
vn -0.65314189 -0.38315969 -0.65314189
vn -0.35347784 -0.38315969 -0.85337100
vn -1.0784293e-16 -0.38315969 -0.92368212
vn 0.35347784 -0.38315969 -0.85337100
vn 0.65314189 -0.38315969 -0.65314189
vn 0.85337100 -0.38315969 -0.35347784
vn 0.70658450 -0.70762868 -6.4298911e-17
vn 0.65279895 -0.70762868 0.27039818
vn 0.49963069 -0.70762868 0.49963069
vn 0.27039818 -0.70762868 0.65279895
vn 0.0000000e+0 -0.70762868 0.70658450
vn -0.27039818 -0.70762868 0.65279895
vn -0.49963069 -0.70762868 0.49963069
vn -0.65279895 -0.70762868 0.27039818
vn -0.70658450 -0.70762868 1.5003079e-16
vn -0.65279895 -0.70762868 -0.27039818
vn -0.49963069 -0.70762868 -0.49963069
vn -0.27039818 -0.70762868 -0.65279895
vn -5.7154588e-17 -0.70762868 -0.70658450
vn 0.27039818 -0.70762868 -0.65279895
vn 0.49963069 -0.70762868 -0.49963069
vn 0.65279895 -0.70762868 -0.27039818
vn 0.38219484 -0.92408176 4.6498325e-16
vn 0.35310199 -0.92408176 0.14625963
vn 0.27025256 -0.92408176 0.27025256
vn 0.14625963 -0.92408176 0.35310199
vn 3.5494904e-18 -0.92408176 0.38219484
vn -0.14625963 -0.92408176 0.35310199
vn -0.27025256 -0.92408176 0.27025256
vn -0.35310199 -0.92408176 0.14625963
vn -0.38219484 -0.92408176 1.2423216e-16
vn -0.35310199 -0.92408176 -0.14625963
vn -0.27025256 -0.92408176 -0.27025256
vn -0.14625963 -0.92408176 -0.35310199
vn -3.5494904e-17 -0.92408176 -0.38219484
vn 0.14625963 -0.92408176 -0.35310199
vn 0.27025256 -0.92408176 -0.27025256
vn 0.35310199 -0.92408176 -0.14625963
vn -7.0801599e-18 1.00000000 -4.3365979e-17
vn -8.8501998e-18 -1.00000000 -6.2393909e-17
g sphere2_default
usemtl default
s 1
f 1//1 17//17 32//32 16//16
f 1//1 113//113 2//2
f 2//2 18//18 17//17 1//1
f 2//2 113//113 3//3
f 3//3 19//19 18//18 2//2
f 3//3 113//113 4//4
f 4//4 20//20 19//19 3//3
f 4//4 113//113 5//5
f 5//5 21//21 20//20 4//4
f 5//5 113//113 6//6
f 6//6 22//22 21//21 5//5
f 6//6 113//113 7//7
f 7//7 23//23 22//22 6//6
f 7//7 113//113 8//8
f 8//8 24//24 23//23 7//7
f 8//8 113//113 9//9
f 9//9 25//25 24//24 8//8
f 9//9 113//113 10//10
f 10//10 26//26 25//25 9//9
f 10//10 113//113 11//11
f 11//11 27//27 26//26 10//10
f 11//11 113//113 12//12
f 12//12 28//28 27//27 11//11
f 12//12 113//113 13//13
f 13//13 29//29 28//28 12//12
f 13//13 113//113 14//14
f 14//14 30//30 29//29 13//13
f 14//14 113//113 15//15
f 15//15 31//31 30//30 14//14
f 15//15 113//113 16//16
f 16//16 32//32 31//31 15//15
f 16//16 113//113 1//1
f 17//17 33//33 48//48 32//32
f 18//18 34//34 33//33 17//17
f 19//19 35//35 34//34 18//18
f 20//20 36//36 35//35 19//19
f 21//21 37//37 36//36 20//20
f 22//22 38//38 37//37 21//21
f 23//23 39//39 38//38 22//22
f 24//24 40//40 39//39 23//23
f 25//25 41//41 40//40 24//24
f 26//26 42//42 41//41 25//25
f 27//27 43//43 42//42 26//26
f 28//28 44//44 43//43 27//27
f 29//29 45//45 44//44 28//28
f 30//30 46//46 45//45 29//29
f 31//31 47//47 46//46 30//30
f 32//32 48//48 47//47 31//31
f 33//33 49//49 64//64 48//48
f 34//34 50//50 49//49 33//33
f 35//35 51//51 50//50 34//34
f 36//36 52//52 51//51 35//35
f 37//37 53//53 52//52 36//36
f 38//38 54//54 53//53 37//37
f 39//39 55//55 54//54 38//38
f 40//40 56//56 55//55 39//39
f 41//41 57//57 56//56 40//40
f 42//42 58//58 57//57 41//41
f 43//43 59//59 58//58 42//42
f 44//44 60//60 59//59 43//43
f 45//45 61//61 60//60 44//44
f 46//46 62//62 61//61 45//45
f 47//47 63//63 62//62 46//46
f 48//48 64//64 63//63 47//47
f 49//49 65//65 80//80 64//64
f 50//50 66//66 65//65 49//49
f 51//51 67//67 66//66 50//50
f 52//52 68//68 67//67 51//51
f 53//53 69//69 68//68 52//52
f 54//54 70//70 69//69 53//53
f 55//55 71//71 70//70 54//54
f 56//56 72//72 71//71 55//55
f 57//57 73//73 72//72 56//56
f 58//58 74//74 73//73 57//57
f 59//59 75//75 74//74 58//58
f 60//60 76//76 75//75 59//59
f 61//61 77//77 76//76 60//60
f 62//62 78//78 77//77 61//61
f 63//63 79//79 78//78 62//62
f 64//64 80//80 79//79 63//63
f 65//65 81//81 96//96 80//80
f 66//66 82//82 81//81 65//65
f 67//67 83//83 82//82 66//66
f 68//68 84//84 83//83 67//67
f 69//69 85//85 84//84 68//68
f 70//70 86//86 85//85 69//69
f 71//71 87//87 86//86 70//70
f 72//72 88//88 87//87 71//71
f 73//73 89//89 88//88 72//72
f 74//74 90//90 89//89 73//73
f 75//75 91//91 90//90 74//74
f 76//76 92//92 91//91 75//75
f 77//77 93//93 92//92 76//76
f 78//78 94//94 93//93 77//77
f 79//79 95//95 94//94 78//78
f 80//80 96//96 95//95 79//79
f 81//81 97//97 112//112 96//96
f 82//82 98//98 97//97 81//81
f 83//83 99//99 98//98 82//82
f 84//84 100//100 99//99 83//83
f 85//85 101//101 100//100 84//84
f 86//86 102//102 101//101 85//85
f 87//87 103//103 102//102 86//86
f 88//88 104//104 103//103 87//87
f 89//89 105//105 104//104 88//88
f 90//90 106//106 105//105 89//89
f 91//91 107//107 106//106 90//90
f 92//92 108//108 107//107 91//91
f 93//93 109//109 108//108 92//92
f 94//94 110//110 109//109 93//93
f 95//95 111//111 110//110 94//94
f 96//96 112//112 111//111 95//95
f 97//97 114//114 112//112
f 98//98 114//114 97//97
f 99//99 114//114 98//98
f 100//100 114//114 99//99
f 101//101 114//114 100//100
f 102//102 114//114 101//101
f 103//103 114//114 102//102
f 104//104 114//114 103//103
f 105//105 114//114 104//104
f 106//106 114//114 105//105
f 107//107 114//114 106//106
f 108//108 114//114 107//107
f 109//109 114//114 108//108
f 110//110 114//114 109//109
f 111//111 114//114 110//110
f 112//112 114//114 111//111
o Cylinder1
#640 vertices, 626 faces
v 1.00000000 -33.73288863 0.0000000e+0
v 0.92387953 -33.73288863 0.38268343
v 0.70710678 -33.73288863 0.70710678
v 0.38268343 -33.73288863 0.92387953
v 6.1232340e-17 -33.73288863 1.00000000
v -0.38268343 -33.73288863 0.92387953
v -0.70710678 -33.73288863 0.70710678
v -0.92387953 -33.73288863 0.38268343
v -1.00000000 -33.73288863 1.2246468e-16
v -0.92387953 -33.73288863 -0.38268343
v -0.70710678 -33.73288863 -0.70710678
v -0.38268343 -33.73288863 -0.92387953
v -1.8369702e-16 -33.73288863 -1.00000000
v 0.38268343 -33.73288863 -0.92387953
v 0.70710678 -33.73288863 -0.70710678
v 0.92387953 -33.73288863 -0.38268343
v 1.00000000 -35.73288863 0.0000000e+0
v 0.92387953 -35.73288863 0.38268343
v 0.70710678 -35.73288863 0.70710678
v 0.38268343 -35.73288863 0.92387953
v 6.1232340e-17 -35.73288863 1.00000000
v -0.38268343 -35.73288863 0.92387953
v -0.70710678 -35.73288863 0.70710678
v -0.92387953 -35.73288863 0.38268343
v -1.00000000 -35.73288863 1.2246468e-16
v -0.92387953 -35.73288863 -0.38268343
v -0.70710678 -35.73288863 -0.70710678
v -0.38268343 -35.73288863 -0.92387953
v -1.8369702e-16 -35.73288863 -1.00000000
v 0.38268343 -35.73288863 -0.92387953
v 0.70710678 -35.73288863 -0.70710678
v 0.92387953 -35.73288863 -0.38268343
v 0.77051553 -33.73288863 0.31915798
v 0.83400000 -33.73288863 2.3488452e-17
v 0.77051553 -33.73288863 -0.31915798
v 0.58972706 -33.73288863 -0.58972706
v 0.31915798 -33.73288863 -0.77051553
v -1.5785972e-16 -33.73288863 -0.83400000
v -0.31915798 -33.73288863 -0.77051553
v -0.58972706 -33.73288863 -0.58972706
v -0.77051553 -33.73288863 -0.31915798
v -0.83400000 -33.73288863 1.0132507e-16
v -0.77051553 -33.73288863 0.31915798
v -0.58972706 -33.73288863 0.58972706
v -0.31915798 -33.73288863 0.77051553
v 6.1232340e-17 -33.73288863 0.83400000
v 0.31915798 -33.73288863 0.77051553
v 0.58972706 -33.73288863 0.58972706
v 0.77051553 -33.36844419 0.31915798
v 0.83400000 -33.36844419 7.0991319e-17
v 0.77051553 -33.36844419 -0.31915798
v 0.58972706 -33.36844419 -0.58972706
v 0.31915798 -33.36844419 -0.77051553
v -1.5785972e-16 -33.36844419 -0.83400000
v -0.31915798 -33.36844419 -0.77051553
v -0.58972706 -33.36844419 -0.58972706
v -0.77051553 -33.36844419 -0.31915798
v -0.83400000 -33.36844419 1.4882794e-16
v -0.77051553 -33.36844419 0.31915798
v -0.58972706 -33.36844419 0.58972706
v -0.31915798 -33.36844419 0.77051553
v 6.1232340e-17 -33.36844419 0.83400000
v 0.31915798 -33.36844419 0.77051553
v 0.58972706 -33.36844419 0.58972706
v 0.82644535 -33.40716806 3.7979800e-2
v 0.77807018 -33.40716806 0.28117818
v 0.77807018 -33.69416476 0.28117818
v 0.82644535 -33.69416476 3.7979800e-2
v 0.77807018 -33.40716806 -0.28117818
v 0.82644535 -33.40716806 -3.7979800e-2
v 0.82644535 -33.69416476 -3.7979800e-2
v 0.77807018 -33.69416476 -0.28117818
v 0.61124088 -33.40716806 -0.55752934
v 0.74900170 -33.40716806 -0.35135570
v 0.74900170 -33.69416476 -0.35135570
v 0.61124088 -33.69416476 -0.55752934
v 0.35135570 -33.40716806 -0.74900170
v 0.55752934 -33.40716806 -0.61124088
v 0.55752934 -33.69416476 -0.61124088
v 0.35135570 -33.69416476 -0.74900170
v 3.7979800e-2 -33.40716806 -0.82644535
v 0.28117818 -33.40716806 -0.77807018
v 0.28117818 -33.69416476 -0.77807018
v 3.7979800e-2 -33.69416476 -0.82644535
v -0.28117818 -33.40716806 -0.77807018
v -3.7979800e-2 -33.40716806 -0.82644535
v -3.7979800e-2 -33.69416476 -0.82644535
v -0.28117818 -33.69416476 -0.77807018
v -0.55752934 -33.40716806 -0.61124088
v -0.35135570 -33.40716806 -0.74900170
v -0.35135570 -33.69416476 -0.74900170
v -0.55752934 -33.69416476 -0.61124088
v -0.74900170 -33.40716806 -0.35135570
v -0.61124088 -33.40716806 -0.55752934
v -0.61124088 -33.69416476 -0.55752934
v -0.74900170 -33.69416476 -0.35135570
v -0.82644535 -33.40716806 -3.7979800e-2
v -0.77807018 -33.40716806 -0.28117818
v -0.77807018 -33.69416476 -0.28117818
v -0.82644535 -33.69416476 -3.7979800e-2
v -0.77807018 -33.40716806 0.28117818
v -0.82644535 -33.40716806 3.7979800e-2
v -0.82644535 -33.69416476 3.7979800e-2
v -0.77807018 -33.69416476 0.28117818
v -0.61124088 -33.40716806 0.55752934
v -0.74900170 -33.40716806 0.35135570
v -0.74900170 -33.69416476 0.35135570
v -0.61124088 -33.69416476 0.55752934
v -0.35135570 -33.40716806 0.74900170
v -0.55752934 -33.40716806 0.61124088
v -0.55752934 -33.69416476 0.61124088
v -0.35135570 -33.69416476 0.74900170
v -3.7979800e-2 -33.40716806 0.82644535
v -0.28117818 -33.40716806 0.77807018
v -0.28117818 -33.69416476 0.77807018
v -3.7979800e-2 -33.69416476 0.82644535
v 0.28117818 -33.40716806 0.77807018
v 3.7979800e-2 -33.40716806 0.82644535
v 3.7979800e-2 -33.69416476 0.82644535
v 0.28117818 -33.69416476 0.77807018
v 0.55752934 -33.40716806 0.61124088
v 0.35135570 -33.40716806 0.74900170
v 0.35135570 -33.69416476 0.74900170
v 0.55752934 -33.69416476 0.61124088
v 0.74900170 -33.40716806 0.35135570
v 0.61124088 -33.40716806 0.55752934
v 0.61124088 -33.69416476 0.55752934
v 0.74900170 -33.69416476 0.35135570
v 0.67213696 -33.40716806 0.29999632
v 0.53437614 -33.40716806 0.50616995
v 0.53437614 -33.69416476 0.50616995
v 0.67213696 -33.69416476 0.29999632
v 0.50616995 -33.40716806 0.53437614
v 0.29999632 -33.40716806 0.67213696
v 0.29999632 -33.69416476 0.67213696
v 0.50616995 -33.69416476 0.53437614
v 0.26314317 -33.40716806 0.68740203
v 1.9944783e-2 -33.40716806 0.73577720
v 1.9944783e-2 -33.69416476 0.73577720
v 0.26314317 -33.69416476 0.68740203
v -1.9944783e-2 -33.40716806 0.73577720
v -0.26314317 -33.40716806 0.68740203
v -0.26314317 -33.69416476 0.68740203
v -1.9944783e-2 -33.69416476 0.73577720
v -0.29999632 -33.40716806 0.67213696
v -0.50616995 -33.40716806 0.53437614
v -0.50616995 -33.69416476 0.53437614
v -0.29999632 -33.69416476 0.67213696
v -0.53437614 -33.40716806 0.50616995
v -0.67213696 -33.40716806 0.29999632
v -0.67213696 -33.69416476 0.29999632
v -0.53437614 -33.69416476 0.50616995
v -0.68740203 -33.40716806 0.26314317
v -0.73577720 -33.40716806 1.9944783e-2
v -0.73577720 -33.69416476 1.9944783e-2
v -0.68740203 -33.69416476 0.26314317
v -0.73577720 -33.40716806 -1.9944783e-2
v -0.68740203 -33.40716806 -0.26314317
v -0.68740203 -33.69416476 -0.26314317
v -0.73577720 -33.69416476 -1.9944783e-2
v -0.67213696 -33.40716806 -0.29999632
v -0.53437614 -33.40716806 -0.50616995
v -0.53437614 -33.69416476 -0.50616995
v -0.67213696 -33.69416476 -0.29999632
v -0.50616995 -33.40716806 -0.53437614
v -0.29999632 -33.40716806 -0.67213696
v -0.29999632 -33.69416476 -0.67213696
v -0.50616995 -33.69416476 -0.53437614
v -0.26314317 -33.40716806 -0.68740203
v -1.9944783e-2 -33.40716806 -0.73577720
v -1.9944783e-2 -33.69416476 -0.73577720
v -0.26314317 -33.69416476 -0.68740203
v 1.9944783e-2 -33.40716806 -0.73577720
v 0.26314317 -33.40716806 -0.68740203
v 0.26314317 -33.69416476 -0.68740203
v 1.9944783e-2 -33.69416476 -0.73577720
v 0.29999632 -33.40716806 -0.67213696
v 0.50616995 -33.40716806 -0.53437614
v 0.50616995 -33.69416476 -0.53437614
v 0.29999632 -33.69416476 -0.67213696
v 0.53437614 -33.40716806 -0.50616995
v 0.67213696 -33.40716806 -0.29999632
v 0.67213696 -33.69416476 -0.29999632
v 0.53437614 -33.69416476 -0.50616995
v 0.68740203 -33.40716806 -0.26314317
v 0.73577720 -33.40716806 -1.9944783e-2
v 0.73577720 -33.69416476 -1.9944783e-2
v 0.68740203 -33.69416476 -0.26314317
v 0.73577720 -33.40716806 1.9944783e-2
v 0.68740203 -33.40716806 0.26314317
v 0.68740203 -33.69416476 0.26314317
v 0.73577720 -33.69416476 1.9944783e-2
v 0.65802026 -33.36844419 0.27256092
v 0.71223600 -33.36844419 7.4437160e-17
v 0.65802026 -33.36844419 -0.27256092
v 0.50362691 -33.36844419 -0.50362691
v 0.27256092 -33.36844419 -0.65802026
v -1.3718468e-16 -33.36844419 -0.71223600
v -0.27256092 -33.36844419 -0.65802026
v -0.50362691 -33.36844419 -0.50362691
v -0.65802026 -33.36844419 -0.27256092
v -0.71223600 -33.36844419 1.2642998e-16
v -0.65802026 -33.36844419 0.27256092
v -0.50362691 -33.36844419 0.50362691
v -0.27256092 -33.36844419 0.65802026
v 6.1232340e-17 -33.36844419 0.71223600
v 0.27256092 -33.36844419 0.65802026
v 0.50362691 -33.36844419 0.50362691
v 0.65802026 -33.15333308 0.27256092
v 0.71223600 -33.15333308 1.1288178e-16
v 0.65802026 -33.15333308 -0.27256092
v 0.50362691 -33.15333308 -0.50362691
v 0.27256092 -33.15333308 -0.65802026
v -1.3718468e-16 -33.15333308 -0.71223600
v -0.27256092 -33.15333308 -0.65802026
v -0.50362691 -33.15333308 -0.50362691
v -0.65802026 -33.15333308 -0.27256092
v -0.71223600 -33.15333308 1.6487460e-16
v -0.65802026 -33.15333308 0.27256092
v -0.50362691 -33.15333308 0.50362691
v -0.27256092 -33.15333308 0.65802026
v 6.1232340e-17 -33.15333308 0.71223600
v 0.27256092 -33.15333308 0.65802026
v 0.50362691 -33.15333308 0.50362691
v 1.00000000 -32.57377752 -2.7966079e-16
v 0.92387953 -32.57377752 0.38268343
v 0.70710678 -32.57377752 0.70710678
v 0.38268343 -32.57377752 0.92387953
v 6.1232340e-17 -32.57377752 1.00000000
v -0.38268343 -32.57377752 0.92387953
v -0.70710678 -32.57377752 0.70710678
v -0.92387953 -32.57377752 0.38268343
v -1.00000000 -32.57377752 -1.5719611e-16
v -0.92387953 -32.57377752 -0.38268343
v -0.70710678 -32.57377752 -0.70710678
v -0.38268343 -32.57377752 -0.92387953
v -1.8369702e-16 -32.57377752 -1.00000000
v 0.38268343 -32.57377752 -0.92387953
v 0.70710678 -32.57377752 -0.70710678
v 0.92387953 -32.57377752 -0.38268343
v 1.00000000 -30.57377752 -1.2447479e-15
v 0.92387953 -30.57377752 0.38268343
v 0.70710678 -30.57377752 0.70710678
v 0.38268343 -30.57377752 0.92387953
v 6.1232340e-17 -30.57377752 1.00000000
v -0.38268343 -30.57377752 0.92387953
v -0.70710678 -30.57377752 0.70710678
v -0.92387953 -30.57377752 0.38268343
v -1.00000000 -30.57377752 -1.1222832e-15
v -0.92387953 -30.57377752 -0.38268343
v -0.70710678 -30.57377752 -0.70710678
v -0.38268343 -30.57377752 -0.92387953
v -1.8369702e-16 -30.57377752 -1.00000000
v 0.38268343 -30.57377752 -0.92387953
v 0.70710678 -30.57377752 -0.70710678
v 0.92387953 -30.57377752 -0.38268343
v 0.77051553 -32.57377752 0.31915798
v 0.83400000 -32.57377752 -2.5617234e-16
v 0.77051553 -32.57377752 -0.31915798
v 0.58972706 -32.57377752 -0.58972706
v 0.31915798 -32.57377752 -0.77051553
v -1.5785972e-16 -32.57377752 -0.83400000
v -0.31915798 -32.57377752 -0.77051553
v -0.58972706 -32.57377752 -0.58972706
v -0.77051553 -32.57377752 -0.31915798
v -0.83400000 -32.57377752 -1.7833572e-16
v -0.77051553 -32.57377752 0.31915798
v -0.58972706 -32.57377752 0.58972706
v -0.31915798 -32.57377752 0.77051553
v 6.1232340e-17 -32.57377752 0.83400000
v 0.31915798 -32.57377752 0.77051553
v 0.58972706 -32.57377752 0.58972706
v 0.77051553 -32.93822197 0.31915798
v 0.83400000 -32.93822197 -3.2809160e-17
v 0.77051553 -32.93822197 -0.31915798
v 0.58972706 -32.93822197 -0.58972706
v 0.31915798 -32.93822197 -0.77051553
v -1.5785972e-16 -32.93822197 -0.83400000
v -0.31915798 -32.93822197 -0.77051553
v -0.58972706 -32.93822197 -0.58972706
v -0.77051553 -32.93822197 -0.31915798
v -0.83400000 -32.93822197 4.5027462e-17
v -0.77051553 -32.93822197 0.31915798
v -0.58972706 -32.93822197 0.58972706
v -0.31915798 -32.93822197 0.77051553
v 6.1232340e-17 -32.93822197 0.83400000
v 0.31915798 -32.93822197 0.77051553
v 0.58972706 -32.93822197 0.58972706
v 0.82644535 -32.89949810 3.7979800e-2
v 0.77807018 -32.89949810 0.28117818
v 0.77807018 -32.61250139 0.28117818
v 0.82644535 -32.61250139 3.7979800e-2
v 0.77807018 -32.89949810 -0.28117818
v 0.82644535 -32.89949810 -3.7979800e-2
v 0.82644535 -32.61250139 -3.7979800e-2
v 0.77807018 -32.61250139 -0.28117818
v 0.61124088 -32.89949810 -0.55752934
v 0.74900170 -32.89949810 -0.35135570
v 0.74900170 -32.61250139 -0.35135570
v 0.61124088 -32.61250139 -0.55752934
v 0.35135570 -32.89949810 -0.74900170
v 0.55752934 -32.89949810 -0.61124088
v 0.55752934 -32.61250139 -0.61124088
v 0.35135570 -32.61250139 -0.74900170
v 3.7979800e-2 -32.89949810 -0.82644535
v 0.28117818 -32.89949810 -0.77807018
v 0.28117818 -32.61250139 -0.77807018
v 3.7979800e-2 -32.61250139 -0.82644535
v -0.28117818 -32.89949810 -0.77807018
v -3.7979800e-2 -32.89949810 -0.82644535
v -3.7979800e-2 -32.61250139 -0.82644535
v -0.28117818 -32.61250139 -0.77807018
v -0.55752934 -32.89949810 -0.61124088
v -0.35135570 -32.89949810 -0.74900170
v -0.35135570 -32.61250139 -0.74900170
v -0.55752934 -32.61250139 -0.61124088
v -0.74900170 -32.89949810 -0.35135570
v -0.61124088 -32.89949810 -0.55752934
v -0.61124088 -32.61250139 -0.55752934
v -0.74900170 -32.61250139 -0.35135570
v -0.82644535 -32.89949810 -3.7979800e-2
v -0.77807018 -32.89949810 -0.28117818
v -0.77807018 -32.61250139 -0.28117818
v -0.82644535 -32.61250139 -3.7979800e-2
v -0.77807018 -32.89949810 0.28117818
v -0.82644535 -32.89949810 3.7979800e-2
v -0.82644535 -32.61250139 3.7979800e-2
v -0.77807018 -32.61250139 0.28117818
v -0.61124088 -32.89949810 0.55752934
v -0.74900170 -32.89949810 0.35135570
v -0.74900170 -32.61250139 0.35135570
v -0.61124088 -32.61250139 0.55752934
v -0.35135570 -32.89949810 0.74900170
v -0.55752934 -32.89949810 0.61124088
v -0.55752934 -32.61250139 0.61124088
v -0.35135570 -32.61250139 0.74900170
v -3.7979800e-2 -32.89949810 0.82644535
v -0.28117818 -32.89949810 0.77807018
v -0.28117818 -32.61250139 0.77807018
v -3.7979800e-2 -32.61250139 0.82644535
v 0.28117818 -32.89949810 0.77807018
v 3.7979800e-2 -32.89949810 0.82644535
v 3.7979800e-2 -32.61250139 0.82644535
v 0.28117818 -32.61250139 0.77807018
v 0.55752934 -32.89949810 0.61124088
v 0.35135570 -32.89949810 0.74900170
v 0.35135570 -32.61250139 0.74900170
v 0.55752934 -32.61250139 0.61124088
v 0.74900170 -32.89949810 0.35135570
v 0.61124088 -32.89949810 0.55752934
v 0.61124088 -32.61250139 0.55752934
v 0.74900170 -32.61250139 0.35135570
v 0.67213696 -32.89949810 0.29999632
v 0.53437614 -32.89949810 0.50616995
v 0.53437614 -32.61250139 0.50616995
v 0.67213696 -32.61250139 0.29999632
v 0.50616995 -32.89949810 0.53437614
v 0.29999632 -32.89949810 0.67213696
v 0.29999632 -32.61250139 0.67213696
v 0.50616995 -32.61250139 0.53437614
v 0.26314317 -32.89949810 0.68740203
v 1.9944783e-2 -32.89949810 0.73577720
v 1.9944783e-2 -32.61250139 0.73577720
v 0.26314317 -32.61250139 0.68740203
v -1.9944783e-2 -32.89949810 0.73577720
v -0.26314317 -32.89949810 0.68740203
v -0.26314317 -32.61250139 0.68740203
v -1.9944783e-2 -32.61250139 0.73577720
v -0.29999632 -32.89949810 0.67213696
v -0.50616995 -32.89949810 0.53437614
v -0.50616995 -32.61250139 0.53437614
v -0.29999632 -32.61250139 0.67213696
v -0.53437614 -32.89949810 0.50616995
v -0.67213696 -32.89949810 0.29999632
v -0.67213696 -32.61250139 0.29999632
v -0.53437614 -32.61250139 0.50616995
v -0.68740203 -32.89949810 0.26314317
v -0.73577720 -32.89949810 1.9944783e-2
v -0.73577720 -32.61250139 1.9944783e-2
v -0.68740203 -32.61250139 0.26314317
v -0.73577720 -32.89949810 -1.9944783e-2
v -0.68740203 -32.89949810 -0.26314317
v -0.68740203 -32.61250139 -0.26314317
v -0.73577720 -32.61250139 -1.9944783e-2
v -0.67213696 -32.89949810 -0.29999632
v -0.53437614 -32.89949810 -0.50616995
v -0.53437614 -32.61250139 -0.50616995
v -0.67213696 -32.61250139 -0.29999632
v -0.50616995 -32.89949810 -0.53437614
v -0.29999632 -32.89949810 -0.67213696
v -0.29999632 -32.61250139 -0.67213696
v -0.50616995 -32.61250139 -0.53437614
v -0.26314317 -32.89949810 -0.68740203
v -1.9944783e-2 -32.89949810 -0.73577720
v -1.9944783e-2 -32.61250139 -0.73577720
v -0.26314317 -32.61250139 -0.68740203
v 1.9944783e-2 -32.89949810 -0.73577720
v 0.26314317 -32.89949810 -0.68740203
v 0.26314317 -32.61250139 -0.68740203
v 1.9944783e-2 -32.61250139 -0.73577720
v 0.29999632 -32.89949810 -0.67213696
v 0.50616995 -32.89949810 -0.53437614
v 0.50616995 -32.61250139 -0.53437614
v 0.29999632 -32.61250139 -0.67213696
v 0.53437614 -32.89949810 -0.50616995
v 0.67213696 -32.89949810 -0.29999632
v 0.67213696 -32.61250139 -0.29999632
v 0.53437614 -32.61250139 -0.50616995
v 0.68740203 -32.89949810 -0.26314317
v 0.73577720 -32.89949810 -1.9944783e-2
v 0.73577720 -32.61250139 -1.9944783e-2
v 0.68740203 -32.61250139 -0.26314317
v 0.73577720 -32.89949810 1.9944783e-2
v 0.68740203 -32.89949810 0.26314317
v 0.68740203 -32.61250139 0.26314317
v 0.73577720 -32.61250139 1.9944783e-2
v 0.65802026 -32.93822197 0.27256092
v 0.71223600 -32.93822197 -2.9363319e-17
v 0.65802026 -32.93822197 -0.27256092
v 0.50362691 -32.93822197 -0.50362691
v 0.27256092 -32.93822197 -0.65802026
v -1.3718468e-16 -32.93822197 -0.71223600
v -0.27256092 -32.93822197 -0.65802026
v -0.50362691 -32.93822197 -0.50362691
v -0.65802026 -32.93822197 -0.27256092
v -0.71223600 -32.93822197 2.2629497e-17
v -0.65802026 -32.93822197 0.27256092
v -0.50362691 -32.93822197 0.50362691
v -0.27256092 -32.93822197 0.65802026
v 6.1232340e-17 -32.93822197 0.71223600
v 0.27256092 -32.93822197 0.65802026
v 0.50362691 -32.93822197 0.50362691
v 1.65374436 -29.01641567 0.68500334
v 1.79000000 -29.01641567 -1.9498725e-15
v 1.65374436 -29.01641567 -0.68500334
v 1.26572114 -29.01641567 -1.26572114
v 0.68500334 -29.01641567 -1.65374436
v -2.9592731e-16 -29.01641567 -1.79000000
v -0.68500334 -29.01641567 -1.65374436
v -1.26572114 -29.01641567 -1.26572114
v -1.65374436 -29.01641567 -0.68500334
v -1.79000000 -29.01641567 -1.7306607e-15
v -1.65374436 -29.01641567 0.68500334
v -1.26572114 -29.01641567 1.26572114
v -0.68500334 -29.01641567 1.65374436
v 1.4249625e-16 -29.01641567 1.79000000
v 0.68500334 -29.01641567 1.65374436
v 1.26572114 -29.01641567 1.26572114
v 1.65374436 -27.16715039 0.68500334
v 1.79000000 -27.16715039 -3.2894064e-15
v 1.65374436 -27.16715039 -0.68500334
v 1.26572114 -27.16715039 -1.26572114
v 0.68500334 -27.16715039 -1.65374436
v -2.9592731e-16 -27.16715039 -1.79000000
v -0.68500334 -27.16715039 -1.65374436
v -1.26572114 -27.16715039 -1.26572114
v -1.65374436 -27.16715039 -0.68500334
v -1.79000000 -27.16715039 -3.0701946e-15
v -1.65374436 -27.16715039 0.68500334
v -1.26572114 -27.16715039 1.26572114
v -0.68500334 -27.16715039 1.65374436
v 1.4249625e-16 -27.16715039 1.79000000
v 0.68500334 -27.16715039 1.65374436
v 1.26572114 -27.16715039 1.26572114
v 3.81353450 -25.30614375 1.57961771
v 4.12774000 -25.30614375 -3.9158554e-15
v 3.81353450 -25.30614375 -1.57961771
v 2.91875294 -25.30614375 -2.91875294
v 1.57961771 -25.30614375 -3.81353450
v -6.0991081e-16 -25.30614375 -4.12774000
v -1.57961771 -25.30614375 -3.81353450
v -2.91875294 -25.30614375 -2.91875294
v -3.81353450 -25.30614375 -1.57961771
v -4.12774000 -25.30614375 -3.4103531e-15
v -3.81353450 -25.30614375 1.57961771
v -2.91875294 -25.30614375 2.91875294
v -1.57961771 -25.30614375 3.81353450
v 4.0109391e-16 -25.30614375 4.12774000
v 1.57961771 -25.30614375 3.81353450
v 2.91875294 -25.30614375 2.91875294
v 3.54658709 -25.30614375 1.46904447
v 3.83879820 -25.30614375 -3.8790595e-15
v 3.54658709 -25.30614375 -1.46904447
v 2.71444024 -25.30614375 -2.71444024
v 1.46904447 -25.30614375 -3.54658709
v -5.5676121e-16 -25.30614375 -3.83879820
v -1.46904447 -25.30614375 -3.54658709
v -2.71444024 -25.30614375 -2.71444024
v -3.54658709 -25.30614375 -1.46904447
v -3.83879820 -25.30614375 -3.4471489e-15
v -3.54658709 -25.30614375 1.46904447
v -2.71444024 -25.30614375 2.71444024
v -1.46904447 -25.30614375 3.54658709
v 4.1335920e-16 -25.30614375 3.83879820
v 1.46904447 -25.30614375 3.54658709
v 2.71444024 -25.30614375 2.71444024
v 3.54658709 -24.49587897 1.46904447
v 3.83879820 -24.49587897 -4.5011758e-15
v 3.54658709 -24.49587897 -1.46904447
v 2.71444024 -24.49587897 -2.71444024
v 1.46904447 -24.49587897 -3.54658709
v -5.5676121e-16 -24.49587897 -3.83879820
v -1.46904447 -24.49587897 -3.54658709
v -2.71444024 -24.49587897 -2.71444024
v -3.54658709 -24.49587897 -1.46904447
v -3.83879820 -24.49587897 -4.0692652e-15
v -3.54658709 -24.49587897 1.46904447
v -2.71444024 -24.49587897 2.71444024
v -1.46904447 -24.49587897 3.54658709
v 4.1335920e-16 -24.49587897 3.83879820
v 1.46904447 -24.49587897 3.54658709
v 2.71444024 -24.49587897 2.71444024
v 3.26995329 -24.49587897 1.35445900
v 3.53937194 -24.49587897 -4.4715183e-15
v 3.26995329 -24.49587897 -1.35445900
v 2.50271390 -24.49587897 -2.50271390
v 1.35445900 -24.49587897 -3.26995329
v -4.9744625e-16 -24.49587897 -3.53937194
v -1.35445900 -24.49587897 -3.26995329
v -2.50271390 -24.49587897 -2.50271390
v -3.26995329 -24.49587897 -1.35445900
v -3.53937194 -24.49587897 -4.1158698e-15
v -3.26995329 -24.49587897 1.35445900
v -2.50271390 -24.49587897 2.50271390
v -1.35445900 -24.49587897 3.26995329
v 4.2183276e-16 -24.49587897 3.53937194
v 1.35445900 -24.49587897 3.26995329
v 2.50271390 -24.49587897 2.50271390
v 3.26995329 -25.22044266 1.35445900
v 3.53937194 -25.22044266 -4.0352356e-15
v 3.26995329 -25.22044266 -1.35445900
v 2.50271390 -25.22044266 -2.50271390
v 1.35445900 -25.22044266 -3.26995329
v -4.9744625e-16 -25.22044266 -3.53937194
v -1.35445900 -25.22044266 -3.26995329
v -2.50271390 -25.22044266 -2.50271390
v -3.26995329 -25.22044266 -1.35445900
v -3.53937194 -25.22044266 -3.6795870e-15
v -3.26995329 -25.22044266 1.35445900
v -2.50271390 -25.22044266 2.50271390
v -1.35445900 -25.22044266 3.26995329
v 4.2183276e-16 -25.22044266 3.53937194
v 1.35445900 -25.22044266 3.26995329
v 2.50271390 -25.22044266 2.50271390
v 1.00000000 -51.47695649 -9.3321729e-16
v 0.92387953 -51.47695649 0.38268343
v 0.70710678 -51.47695649 0.70710678
v 0.38268343 -51.47695649 0.92387953
v 6.1232340e-17 -51.47695649 1.00000000
v -0.38268343 -51.47695649 0.92387953
v -0.70710678 -51.47695649 0.70710678
v -0.92387953 -51.47695649 0.38268343
v -1.00000000 -51.47695649 -8.1075261e-16
v -0.92387953 -51.47695649 -0.38268343
v -0.70710678 -51.47695649 -0.70710678
v -0.38268343 -51.47695649 -0.92387953
v -1.8369702e-16 -51.47695649 -1.00000000
v 0.38268343 -51.47695649 -0.92387953
v 0.70710678 -51.47695649 -0.70710678
v 0.92387953 -51.47695649 -0.38268343
v 4.33800000 -53.02518549 -1.5160472e-15
v 4.00778941 -53.02518549 1.66008073
v 3.06742922 -53.02518549 3.06742922
v 1.66008073 -53.02518549 4.00778941
v 4.0459806e-16 -53.02518549 4.33800000
v -1.66008073 -53.02518549 4.00778941
v -3.06742922 -53.02518549 3.06742922
v -4.00778941 -53.02518549 1.66008073
v -4.33800000 -53.02518549 -9.8479544e-16
v -4.00778941 -53.02518549 -1.66008073
v -3.06742922 -53.02518549 -3.06742922
v -1.66008073 -53.02518549 -4.00778941
v -6.5790551e-16 -53.02518549 -4.33800000
v 1.66008073 -53.02518549 -4.00778941
v 3.06742922 -53.02518549 -3.06742922
v 4.00778941 -53.02518549 -1.66008073
v 6.63714000 -57.48139245 -2.9650471e-15
v 6.13191780 -57.48139245 2.53992352
v 4.69316670 -57.48139245 4.69316670
v 2.53992352 -57.48139245 6.13191780
v 7.3671867e-16 -57.48139245 6.63714000
v -2.53992352 -57.48139245 6.13191780
v -4.69316670 -57.48139245 4.69316670
v -6.13191780 -57.48139245 2.53992352
v -6.63714000 -57.48139245 -2.1522318e-15
v -6.13191780 -57.48139245 -2.53992352
v -4.69316670 -57.48139245 -4.69316670
v -2.53992352 -57.48139245 -6.13191780
v -8.8891178e-16 -57.48139245 -6.63714000
v 2.53992352 -57.48139245 -6.13191780
v 4.69316670 -57.48139245 -4.69316670
v 6.13191780 -57.48139245 -2.53992352
v 0.43163383 -25.22044266 0.17878859
v 0.46719710 -25.22044266 -3.6005330e-15
v 0.43163383 -25.22044266 -0.17878859
v 0.33035823 -25.22044266 -0.33035823
v 0.17878859 -25.22044266 -0.43163383
v 1.1113738e-16 -25.22044266 -0.46719710
v -0.17878859 -25.22044266 -0.43163383
v -0.33035823 -25.22044266 -0.33035823
v -0.43163383 -25.22044266 -0.17878859
v -0.46719710 -25.22044266 -4.1142896e-15
v -0.43163383 -25.22044266 0.17878859
v -0.33035823 -25.22044266 0.33035823
v -0.17878859 -25.22044266 0.43163383
v 4.6530302e-16 -25.22044266 0.46719710
v 0.17878859 -25.22044266 0.43163383
v 0.33035823 -25.22044266 0.33035823
v 0.11136153 -8.25723796 4.6127456e-2
v 0.12053685 -8.25723796 -4.3564521e-14
v 0.11136153 -8.25723796 -4.6127456e-2
v 8.5232425e-2 -8.25723796 -8.5232425e-2
v 4.6127456e-2 -8.25723796 -0.11136153
v 5.9565401e-17 -8.25723796 -0.12053685
v -4.6127456e-2 -8.25723796 -0.11136153
v -8.5232425e-2 -8.25723796 -8.5232425e-2
v -0.11136153 -8.25723796 -4.6127456e-2
v -0.12053685 -8.25723796 -4.3697071e-14
v -0.11136153 -8.25723796 4.6127456e-2
v -8.5232425e-2 -8.25723796 8.5232425e-2
v -4.6127456e-2 -8.25723796 0.11136153
v 1.5094014e-16 -8.25723796 0.12053685
v 4.6127456e-2 -8.25723796 0.11136153
v 8.5232425e-2 -8.25723796 8.5232425e-2
v 0.11136153 -0.32815141 4.6127456e-2
v 0.12053685 -0.32815141 -6.3355354e-14
v 0.11136153 -0.32815141 -4.6127456e-2
v 8.5232425e-2 -0.32815141 -8.5232425e-2
v 4.6127456e-2 -0.32815141 -0.11136153
v 5.9565401e-17 -0.32815141 -0.12053685
v -4.6127456e-2 -0.32815141 -0.11136153
v -8.5232425e-2 -0.32815141 -8.5232425e-2
v -0.11136153 -0.32815141 -4.6127456e-2
v -0.12053685 -0.32815141 -6.3487903e-14
v -0.11136153 -0.32815141 4.6127456e-2
v -8.5232425e-2 -0.32815141 8.5232425e-2
v -4.6127456e-2 -0.32815141 0.11136153
v 1.5094014e-16 -0.32815141 0.12053685
v 4.6127456e-2 -0.32815141 0.11136153
v 8.5232425e-2 -0.32815141 8.5232425e-2
vn 0.70021451 0.71393252 -9.9078040e-17
vn 0.64691385 0.71393252 0.26796049
vn 0.49512643 0.71393252 0.49512643
vn 0.26796049 0.71393252 0.64691385
vn 0.0000000e+0 0.71393252 0.70021451
vn -0.26796049 0.71393252 0.64691385
vn -0.49512643 0.71393252 0.49512643
vn -0.64691385 0.71393252 0.26796049
vn -0.70021451 0.71393252 8.9170236e-17
vn -0.64691385 0.71393252 -0.26796049
vn -0.49512643 0.71393252 -0.49512643
vn -0.26796049 0.71393252 -0.64691385
vn -1.0898584e-16 0.71393252 -0.70021451
vn 0.26796049 0.71393252 -0.64691385
vn 0.49512643 0.71393252 -0.49512643
vn 0.64691385 0.71393252 -0.26796049
vn 1.00000000 7.1980300e-20 -1.3442186e-16
vn 0.92387953 -1.1300907e-17 0.38268343
vn 0.70710678 -2.0442405e-17 0.70710678
vn 0.38268343 -2.6200829e-17 0.92387953
vn 0.0000000e+0 -2.8216278e-17 1.00000000
vn -0.38268343 -2.6200829e-17 0.92387953
vn -0.70710678 -2.0442405e-17 0.70710678
vn -0.92387953 -1.1300907e-17 0.38268343
vn -1.00000000 7.1980300e-20 1.3442186e-16
vn -0.92387953 1.1372887e-17 -0.38268343
vn -0.70710678 2.0154484e-17 -0.70710678
vn -0.38268343 2.5912908e-17 -0.92387953
vn -1.4857153e-16 2.8216278e-17 -1.00000000
vn 0.38268343 2.6200829e-17 -0.92387953
vn 0.70710678 2.0154484e-17 -0.70710678
vn 0.92387953 1.1084966e-17 -0.38268343
vn 0.82309273 0.45418155 0.34093617
vn 0.89090915 0.45418155 6.3030352e-18
vn 0.82309273 0.45418155 -0.34093617
vn 0.62996790 0.45418155 -0.62996790
vn 0.34093617 0.45418155 -0.82309273
vn -8.8242492e-17 0.45418155 -0.89090915
vn -0.34093617 0.45418155 -0.82309273
vn -0.62996790 0.45418155 -0.62996790
vn -0.82309273 0.45418155 -0.34093617
vn -0.89090915 0.45418155 8.8242492e-17
vn -0.82309273 0.45418155 0.34093617
vn -0.62996790 0.45418155 0.62996790
vn -0.34093617 0.45418155 0.82309273
vn 0.0000000e+0 0.45418155 0.89090915
vn 0.34093617 0.45418155 0.82309273
vn 0.62996790 0.45418155 0.62996790
vn 0.82309273 0.45418155 0.34093617
vn 0.89090915 0.45418155 0.0000000e+0
vn 0.82309273 0.45418155 -0.34093617
vn 0.62996790 0.45418155 -0.62996790
vn 0.34093617 0.45418155 -0.82309273
vn -9.4545527e-17 0.45418155 -0.89090915
vn -0.34093617 0.45418155 -0.82309273
vn -0.62996790 0.45418155 -0.62996790
vn -0.82309273 0.45418155 -0.34093617
vn -0.89090915 0.45418155 8.8242492e-17
vn -0.82309273 0.45418155 0.34093617
vn -0.62996790 0.45418155 0.62996790
vn -0.34093617 0.45418155 0.82309273
vn 6.3030352e-18 0.45418155 0.89090915
vn 0.34093617 0.45418155 0.82309273
vn 0.62996790 0.45418155 0.62996790
vn 0.72116254 -0.40824829 0.55969449
vn 0.88045312 -0.40824829 -0.24111333
vn 0.88045312 0.40824829 -0.24111333
vn 0.72116254 0.40824829 0.55969449
vn 0.88045312 -0.40824829 0.24111333
vn 0.72116254 -0.40824829 -0.55969449
vn 0.72116254 0.40824829 -0.55969449
vn 0.88045312 0.40824829 0.24111333
vn 0.90570269 -0.40824829 -0.11417515
vn 0.45208150 -0.40824829 -0.79306724
vn 0.45208150 0.40824829 -0.79306724
vn 0.90570269 0.40824829 -0.11417515
vn 0.79306724 -0.40824829 -0.45208150
vn 0.11417515 -0.40824829 -0.90570269
vn 0.11417515 0.40824829 -0.90570269
vn 0.79306724 0.40824829 -0.45208150
vn 0.55969449 -0.40824829 -0.72116254
vn -0.24111333 -0.40824829 -0.88045312
vn -0.24111333 0.40824829 -0.88045312
vn 0.55969449 0.40824829 -0.72116254
vn 0.24111333 -0.40824829 -0.88045312
vn -0.55969449 -0.40824829 -0.72116254
vn -0.55969449 0.40824829 -0.72116254
vn 0.24111333 0.40824829 -0.88045312
vn -0.11417515 -0.40824829 -0.90570269
vn -0.79306724 -0.40824829 -0.45208150
vn -0.79306724 0.40824829 -0.45208150
vn -0.11417515 0.40824829 -0.90570269
vn -0.45208150 -0.40824829 -0.79306724
vn -0.90570269 -0.40824829 -0.11417515
vn -0.90570269 0.40824829 -0.11417515
vn -0.45208150 0.40824829 -0.79306724
vn -0.72116254 -0.40824829 -0.55969449
vn -0.88045312 -0.40824829 0.24111333
vn -0.88045312 0.40824829 0.24111333
vn -0.72116254 0.40824829 -0.55969449
vn -0.88045312 -0.40824829 -0.24111333
vn -0.72116254 -0.40824829 0.55969449
vn -0.72116254 0.40824829 0.55969449
vn -0.88045312 0.40824829 -0.24111333
vn -0.90570269 -0.40824829 0.11417515
vn -0.45208150 -0.40824829 0.79306724
vn -0.45208150 0.40824829 0.79306724
vn -0.90570269 0.40824829 0.11417515
vn -0.79306724 -0.40824829 0.45208150
vn -0.11417515 -0.40824829 0.90570269
vn -0.11417515 0.40824829 0.90570269
vn -0.79306724 0.40824829 0.45208150
vn -0.55969449 -0.40824829 0.72116254
vn 0.24111333 -0.40824829 0.88045312
vn 0.24111333 0.40824829 0.88045312
vn -0.55969449 0.40824829 0.72116254
vn -0.24111333 -0.40824829 0.88045312
vn 0.55969449 -0.40824829 0.72116254
vn 0.55969449 0.40824829 0.72116254
vn -0.24111333 0.40824829 0.88045312
vn 0.11417515 -0.40824829 0.90570269
vn 0.79306724 -0.40824829 0.45208150
vn 0.79306724 0.40824829 0.45208150
vn 0.11417515 0.40824829 0.90570269
vn 0.45208150 -0.40824829 0.79306724
vn 0.90570269 -0.40824829 0.11417515
vn 0.90570269 0.40824829 0.11417515
vn 0.45208150 0.40824829 0.79306724
vn 0.15929058 -0.57735027 0.80080783
vn 0.80080783 -0.57735027 -0.15929058
vn 0.80080783 0.57735027 -0.15929058
vn 0.15929058 0.57735027 0.80080783
vn -0.15929058 -0.57735027 0.80080783
vn 0.80080783 -0.57735027 0.15929058
vn 0.80080783 0.57735027 0.15929058
vn -0.15929058 0.57735027 0.80080783
vn -0.45362120 -0.57735027 0.67889210
vn 0.67889210 -0.57735027 0.45362120
vn 0.67889210 0.57735027 0.45362120
vn -0.45362120 0.57735027 0.67889210
vn -0.67889210 -0.57735027 0.45362120
vn 0.45362120 -0.57735027 0.67889210
vn 0.45362120 0.57735027 0.67889210
vn -0.67889210 0.57735027 0.45362120
vn -0.80080783 -0.57735027 0.15929058
vn 0.15929058 -0.57735027 0.80080783
vn 0.15929058 0.57735027 0.80080783
vn -0.80080783 0.57735027 0.15929058
vn -0.80080783 -0.57735027 -0.15929058
vn -0.15929058 -0.57735027 0.80080783
vn -0.15929058 0.57735027 0.80080783
vn -0.80080783 0.57735027 -0.15929058
vn -0.67889210 -0.57735027 -0.45362120
vn -0.45362120 -0.57735027 0.67889210
vn -0.45362120 0.57735027 0.67889210
vn -0.67889210 0.57735027 -0.45362120
vn -0.45362120 -0.57735027 -0.67889210
vn -0.67889210 -0.57735027 0.45362120
vn -0.67889210 0.57735027 0.45362120
vn -0.45362120 0.57735027 -0.67889210
vn -0.15929058 -0.57735027 -0.80080783
vn -0.80080783 -0.57735027 0.15929058
vn -0.80080783 0.57735027 0.15929058
vn -0.15929058 0.57735027 -0.80080783
vn 0.15929058 -0.57735027 -0.80080783
vn -0.80080783 -0.57735027 -0.15929058
vn -0.80080783 0.57735027 -0.15929058
vn 0.15929058 0.57735027 -0.80080783
vn 0.45362120 -0.57735027 -0.67889210
vn -0.67889210 -0.57735027 -0.45362120
vn -0.67889210 0.57735027 -0.45362120
vn 0.45362120 0.57735027 -0.67889210
vn 0.67889210 -0.57735027 -0.45362120
vn -0.45362120 -0.57735027 -0.67889210
vn -0.45362120 0.57735027 -0.67889210
vn 0.67889210 0.57735027 -0.45362120
vn 0.80080783 -0.57735027 -0.15929058
vn -0.15929058 -0.57735027 -0.80080783
vn -0.15929058 0.57735027 -0.80080783
vn 0.80080783 0.57735027 -0.15929058
vn 0.80080783 -0.57735027 0.15929058
vn 0.15929058 -0.57735027 -0.80080783
vn 0.15929058 0.57735027 -0.80080783
vn 0.80080783 0.57735027 0.15929058
vn 0.67889210 -0.57735027 0.45362120
vn 0.45362120 -0.57735027 -0.67889210
vn 0.45362120 0.57735027 -0.67889210
vn 0.67889210 0.57735027 0.45362120
vn 0.45362120 -0.57735027 0.67889210
vn 0.67889210 -0.57735027 -0.45362120
vn 0.67889210 0.57735027 -0.45362120
vn 0.45362120 0.57735027 0.67889210
vn 0.64691385 0.71393252 0.26796049
vn 0.70021451 0.71393252 -2.9723412e-17
vn 0.64691385 0.71393252 -0.26796049
vn 0.49512643 0.71393252 -0.49512643
vn 0.26796049 0.71393252 -0.64691385
vn -8.9170236e-17 0.71393252 -0.70021451
vn -0.26796049 0.71393252 -0.64691385
vn -0.49512643 0.71393252 -0.49512643
vn -0.64691385 0.71393252 -0.26796049
vn -0.70021451 0.71393252 1.2880145e-16
vn -0.64691385 0.71393252 0.26796049
vn -0.49512643 0.71393252 0.49512643
vn -0.26796049 0.71393252 0.64691385
vn 0.0000000e+0 0.71393252 0.70021451
vn 0.26796049 0.71393252 0.64691385
vn 0.49512643 0.71393252 0.49512643
vn 0.92387953 1.0355519e-16 0.38268343
vn 1.00000000 7.3967994e-18 -3.5374174e-17
vn 0.92387953 -9.6158392e-17 -0.38268343
vn 0.70710678 -1.9231678e-16 -0.70710678
vn 0.38268343 -2.4779278e-16 -0.92387953
vn -1.4857153e-16 -2.5888798e-16 -1.00000000
vn -0.38268343 -2.4779278e-16 -0.92387953
vn -0.70710678 -1.9231678e-16 -0.70710678
vn -0.92387953 -9.6158392e-17 -0.38268343
vn -1.00000000 7.3967994e-18 1.9102054e-16
vn -0.92387953 1.0355519e-16 0.38268343
vn -0.70710678 1.7752318e-16 0.70710678
vn -0.38268343 2.3299918e-16 0.92387953
vn 0.0000000e+0 2.5888798e-16 1.00000000
vn 0.38268343 2.4779278e-16 0.92387953
vn 0.70710678 1.9231678e-16 0.70710678
vn 0.70021451 -0.71393252 -8.9170236e-17
vn 0.64691385 -0.71393252 0.26796049
vn 0.49512643 -0.71393252 0.49512643
vn 0.26796049 -0.71393252 0.64691385
vn 0.0000000e+0 -0.71393252 0.70021451
vn -0.26796049 -0.71393252 0.64691385
vn -0.49512643 -0.71393252 0.49512643
vn -0.64691385 -0.71393252 0.26796049
vn -0.70021451 -0.71393252 1.1889365e-16
vn -0.64691385 -0.71393252 -0.26796049
vn -0.49512643 -0.71393252 -0.49512643
vn -0.26796049 -0.71393252 -0.64691385
vn -8.9170236e-17 -0.71393252 -0.70021451
vn 0.26796049 -0.71393252 -0.64691385
vn 0.49512643 -0.71393252 -0.49512643
vn 0.64691385 -0.71393252 -0.26796049
vn 0.97247007 -0.23302783 6.1710702e-16
vn 0.89844519 -0.23302783 0.37214818
vn 0.68764018 -0.23302783 0.68764018
vn 0.37214818 -0.23302783 0.89844519
vn 0.0000000e+0 -0.23302783 0.97247007
vn -0.37214818 -0.23302783 0.89844519
vn -0.68764018 -0.23302783 0.68764018
vn -0.89844519 -0.23302783 0.37214818
vn -0.97247007 -0.23302783 9.2929057e-16
vn -0.89844519 -0.23302783 -0.37214818
vn -0.68764018 -0.23302783 -0.68764018
vn -0.37214818 -0.23302783 -0.89844519
vn -1.3068149e-16 -0.23302783 -0.97247007
vn 0.37214818 -0.23302783 -0.89844519
vn 0.68764018 -0.23302783 -0.68764018
vn 0.89844519 -0.23302783 -0.37214818
vn 0.82309273 -0.45418155 0.34093617
vn 0.89090915 -0.45418155 1.8909105e-17
vn 0.82309273 -0.45418155 -0.34093617
vn 0.62996790 -0.45418155 -0.62996790
vn 0.34093617 -0.45418155 -0.82309273
vn -9.4545527e-17 -0.45418155 -0.89090915
vn -0.34093617 -0.45418155 -0.82309273
vn -0.62996790 -0.45418155 -0.62996790
vn -0.82309273 -0.45418155 -0.34093617
vn -0.89090915 -0.45418155 8.8242492e-17
vn -0.82309273 -0.45418155 0.34093617
vn -0.62996790 -0.45418155 0.62996790
vn -0.34093617 -0.45418155 0.82309273
vn 0.0000000e+0 -0.45418155 0.89090915
vn 0.34093617 -0.45418155 0.82309273
vn 0.62996790 -0.45418155 0.62996790
vn 0.82309273 -0.45418155 0.34093617
vn 0.89090915 -0.45418155 6.3030352e-18
vn 0.82309273 -0.45418155 -0.34093617
vn 0.62996790 -0.45418155 -0.62996790
vn 0.34093617 -0.45418155 -0.82309273
vn -8.8242492e-17 -0.45418155 -0.89090915
vn -0.34093617 -0.45418155 -0.82309273
vn -0.62996790 -0.45418155 -0.62996790
vn -0.82309273 -0.45418155 -0.34093617
vn -0.89090915 -0.45418155 7.5636422e-17
vn -0.82309273 -0.45418155 0.34093617
vn -0.62996790 -0.45418155 0.62996790
vn -0.34093617 -0.45418155 0.82309273
vn -6.3030352e-18 -0.45418155 0.89090915
vn 0.34093617 -0.45418155 0.82309273
vn 0.62996790 -0.45418155 0.62996790
vn 0.72116254 0.40824829 0.55969449
vn 0.88045312 0.40824829 -0.24111333
vn 0.88045312 -0.40824829 -0.24111333
vn 0.72116254 -0.40824829 0.55969449
vn 0.88045312 0.40824829 0.24111333
vn 0.72116254 0.40824829 -0.55969449
vn 0.72116254 -0.40824829 -0.55969449
vn 0.88045312 -0.40824829 0.24111333
vn 0.90570269 0.40824829 -0.11417515
vn 0.45208150 0.40824829 -0.79306724
vn 0.45208150 -0.40824829 -0.79306724
vn 0.90570269 -0.40824829 -0.11417515
vn 0.79306724 0.40824829 -0.45208150
vn 0.11417515 0.40824829 -0.90570269
vn 0.11417515 -0.40824829 -0.90570269
vn 0.79306724 -0.40824829 -0.45208150
vn 0.55969449 0.40824829 -0.72116254
vn -0.24111333 0.40824829 -0.88045312
vn -0.24111333 -0.40824829 -0.88045312
vn 0.55969449 -0.40824829 -0.72116254
vn 0.24111333 0.40824829 -0.88045312
vn -0.55969449 0.40824829 -0.72116254
vn -0.55969449 -0.40824829 -0.72116254
vn 0.24111333 -0.40824829 -0.88045312
vn -0.11417515 0.40824829 -0.90570269
vn -0.79306724 0.40824829 -0.45208150
vn -0.79306724 -0.40824829 -0.45208150
vn -0.11417515 -0.40824829 -0.90570269
vn -0.45208150 0.40824829 -0.79306724
vn -0.90570269 0.40824829 -0.11417515
vn -0.90570269 -0.40824829 -0.11417515
vn -0.45208150 -0.40824829 -0.79306724
vn -0.72116254 0.40824829 -0.55969449
vn -0.88045312 0.40824829 0.24111333
vn -0.88045312 -0.40824829 0.24111333
vn -0.72116254 -0.40824829 -0.55969449
vn -0.88045312 0.40824829 -0.24111333
vn -0.72116254 0.40824829 0.55969449
vn -0.72116254 -0.40824829 0.55969449
vn -0.88045312 -0.40824829 -0.24111333
vn -0.90570269 0.40824829 0.11417515
vn -0.45208150 0.40824829 0.79306724
vn -0.45208150 -0.40824829 0.79306724
vn -0.90570269 -0.40824829 0.11417515
vn -0.79306724 0.40824829 0.45208150
vn -0.11417515 0.40824829 0.90570269
vn -0.11417515 -0.40824829 0.90570269
vn -0.79306724 -0.40824829 0.45208150
vn -0.55969449 0.40824829 0.72116254
vn 0.24111333 0.40824829 0.88045312
vn 0.24111333 -0.40824829 0.88045312
vn -0.55969449 -0.40824829 0.72116254
vn -0.24111333 0.40824829 0.88045312
vn 0.55969449 0.40824829 0.72116254
vn 0.55969449 -0.40824829 0.72116254
vn -0.24111333 -0.40824829 0.88045312
vn 0.11417515 0.40824829 0.90570269
vn 0.79306724 0.40824829 0.45208150
vn 0.79306724 -0.40824829 0.45208150
vn 0.11417515 -0.40824829 0.90570269
vn 0.45208150 0.40824829 0.79306724
vn 0.90570269 0.40824829 0.11417515
vn 0.90570269 -0.40824829 0.11417515
vn 0.45208150 -0.40824829 0.79306724
vn 0.15929058 0.57735027 0.80080783
vn 0.80080783 0.57735027 -0.15929058
vn 0.80080783 -0.57735027 -0.15929058
vn 0.15929058 -0.57735027 0.80080783
vn -0.15929058 0.57735027 0.80080783
vn 0.80080783 0.57735027 0.15929058
vn 0.80080783 -0.57735027 0.15929058
vn -0.15929058 -0.57735027 0.80080783
vn -0.45362120 0.57735027 0.67889210
vn 0.67889210 0.57735027 0.45362120
vn 0.67889210 -0.57735027 0.45362120
vn -0.45362120 -0.57735027 0.67889210
vn -0.67889210 0.57735027 0.45362120
vn 0.45362120 0.57735027 0.67889210
vn 0.45362120 -0.57735027 0.67889210
vn -0.67889210 -0.57735027 0.45362120
vn -0.80080783 0.57735027 0.15929058
vn 0.15929058 0.57735027 0.80080783
vn 0.15929058 -0.57735027 0.80080783
vn -0.80080783 -0.57735027 0.15929058
vn -0.80080783 0.57735027 -0.15929058
vn -0.15929058 0.57735027 0.80080783
vn -0.15929058 -0.57735027 0.80080783
vn -0.80080783 -0.57735027 -0.15929058
vn -0.67889210 0.57735027 -0.45362120
vn -0.45362120 0.57735027 0.67889210
vn -0.45362120 -0.57735027 0.67889210
vn -0.67889210 -0.57735027 -0.45362120
vn -0.45362120 0.57735027 -0.67889210
vn -0.67889210 0.57735027 0.45362120
vn -0.67889210 -0.57735027 0.45362120
vn -0.45362120 -0.57735027 -0.67889210
vn -0.15929058 0.57735027 -0.80080783
vn -0.80080783 0.57735027 0.15929058
vn -0.80080783 -0.57735027 0.15929058
vn -0.15929058 -0.57735027 -0.80080783
vn 0.15929058 0.57735027 -0.80080783
vn -0.80080783 0.57735027 -0.15929058
vn -0.80080783 -0.57735027 -0.15929058
vn 0.15929058 -0.57735027 -0.80080783
vn 0.45362120 0.57735027 -0.67889210
vn -0.67889210 0.57735027 -0.45362120
vn -0.67889210 -0.57735027 -0.45362120
vn 0.45362120 -0.57735027 -0.67889210
vn 0.67889210 0.57735027 -0.45362120
vn -0.45362120 0.57735027 -0.67889210
vn -0.45362120 -0.57735027 -0.67889210
vn 0.67889210 -0.57735027 -0.45362120
vn 0.80080783 0.57735027 -0.15929058
vn -0.15929058 0.57735027 -0.80080783
vn -0.15929058 -0.57735027 -0.80080783
vn 0.80080783 -0.57735027 -0.15929058
vn 0.80080783 0.57735027 0.15929058
vn 0.15929058 0.57735027 -0.80080783
vn 0.15929058 -0.57735027 -0.80080783
vn 0.80080783 -0.57735027 0.15929058
vn 0.67889210 0.57735027 0.45362120
vn 0.45362120 0.57735027 -0.67889210
vn 0.45362120 -0.57735027 -0.67889210
vn 0.67889210 -0.57735027 0.45362120
vn 0.45362120 0.57735027 0.67889210
vn 0.67889210 0.57735027 -0.45362120
vn 0.67889210 -0.57735027 -0.45362120
vn 0.45362120 -0.57735027 0.67889210
vn 0.64691385 -0.71393252 0.26796049
vn 0.70021451 -0.71393252 -1.9815608e-17
vn 0.64691385 -0.71393252 -0.26796049
vn 0.49512643 -0.71393252 -0.49512643
vn 0.26796049 -0.71393252 -0.64691385
vn -1.1889365e-16 -0.71393252 -0.70021451
vn -0.26796049 -0.71393252 -0.64691385
vn -0.49512643 -0.71393252 -0.49512643
vn -0.64691385 -0.71393252 -0.26796049
vn -0.70021451 -0.71393252 1.3870926e-16
vn -0.64691385 -0.71393252 0.26796049
vn -0.49512643 -0.71393252 0.49512643
vn -0.26796049 -0.71393252 0.64691385
vn 0.0000000e+0 -0.71393252 0.70021451
vn 0.26796049 -0.71393252 0.64691385
vn 0.49512643 -0.71393252 0.49512643
vn 0.89844519 -0.23302783 0.37214818
vn 0.97247007 -0.23302783 6.0258685e-16
vn 0.89844519 -0.23302783 -0.37214818
vn 0.68764018 -0.23302783 -0.68764018
vn 0.37214818 -0.23302783 -0.89844519
vn -1.6698190e-16 -0.23302783 -0.97247007
vn -0.37214818 -0.23302783 -0.89844519
vn -0.68764018 -0.23302783 -0.68764018
vn -0.89844519 -0.23302783 -0.37214818
vn -0.97247007 -0.23302783 9.2203049e-16
vn -0.89844519 -0.23302783 0.37214818
vn -0.68764018 -0.23302783 0.68764018
vn -0.37214818 -0.23302783 0.89844519
vn -2.1780248e-17 -0.23302783 0.97247007
vn 0.37214818 -0.23302783 0.89844519
vn 0.68764018 -0.23302783 0.68764018
vn 0.83107146 -0.43682756 0.34424107
vn 0.89954527 -0.43682756 8.9008714e-16
vn 0.83107146 -0.43682756 -0.34424107
vn 0.63607456 -0.43682756 -0.63607456
vn 0.34424107 -0.43682756 -0.83107146
vn -1.9909844e-16 -0.43682756 -0.89954527
vn -0.34424107 -0.43682756 -0.83107146
vn -0.63607456 -0.43682756 -0.63607456
vn -0.83107146 -0.43682756 -0.34424107
vn -0.89954527 -0.43682756 1.1711673e-15
vn -0.83107146 -0.43682756 0.34424107
vn -0.63607456 -0.43682756 0.63607456
vn -0.34424107 -0.43682756 0.83107146
vn -3.1231128e-17 -0.43682756 0.89954527
vn 0.34424107 -0.43682756 0.83107146
vn 0.63607456 -0.43682756 0.63607456
vn 0.86879269 0.34014103 0.35986572
vn 0.94037444 0.34014103 -7.7172236e-16
vn 0.86879269 0.34014103 -0.35986572
vn 0.66494514 0.34014103 -0.66494514
vn 0.35986572 0.34014103 -0.86879269
vn -2.4280889e-16 0.34014103 -0.94037444
vn -0.35986572 0.34014103 -0.86879269
vn -0.66494514 0.34014103 -0.66494514
vn -0.86879269 0.34014103 -0.35986572
vn -0.94037444 0.34014103 -4.7612892e-16
vn -0.86879269 0.34014103 0.35986572
vn -0.66494514 0.34014103 0.66494514
vn -0.35986572 0.34014103 0.86879269
vn -2.1113817e-17 0.34014103 0.94037444
vn 0.35986572 0.34014103 0.86879269
vn 0.66494514 0.34014103 0.66494514
vn 0.64691385 0.71393252 0.26796049
vn 0.70021451 0.71393252 -1.7041423e-15
vn 0.64691385 0.71393252 -0.26796049
vn 0.49512643 0.71393252 -0.49512643
vn 0.26796049 0.71393252 -0.64691385
vn -1.3870926e-16 0.71393252 -0.70021451
vn -0.26796049 0.71393252 -0.64691385
vn -0.49512643 0.71393252 -0.49512643
vn -0.64691385 0.71393252 -0.26796049
vn -0.70021451 0.71393252 -1.5158940e-15
vn -0.64691385 0.71393252 0.26796049
vn -0.49512643 0.71393252 0.49512643
vn -0.26796049 0.71393252 0.64691385
vn -2.9723412e-17 0.71393252 0.70021451
vn 0.26796049 0.71393252 0.64691385
vn 0.49512643 0.71393252 0.49512643
vn 0.64691385 0.71393252 0.26796049
vn 0.70021451 0.71393252 -9.9078040e-17
vn 0.64691385 0.71393252 -0.26796049
vn 0.49512643 0.71393252 -0.49512643
vn 0.26796049 0.71393252 -0.64691385
vn -1.3870926e-16 0.71393252 -0.70021451
vn -0.26796049 0.71393252 -0.64691385
vn -0.49512643 0.71393252 -0.49512643
vn -0.64691385 0.71393252 -0.26796049
vn -0.70021451 0.71393252 8.9170236e-17
vn -0.64691385 0.71393252 0.26796049
vn -0.49512643 0.71393252 0.49512643
vn -0.26796049 0.71393252 0.64691385
vn -2.9723412e-17 0.71393252 0.70021451
vn 0.26796049 0.71393252 0.64691385
vn 0.49512643 0.71393252 0.49512643
vn -0.64691385 0.71393252 -0.26796049
vn -0.70021451 0.71393252 9.9078040e-17
vn -0.64691385 0.71393252 0.26796049
vn -0.49512643 0.71393252 0.49512643
vn -0.26796049 0.71393252 0.64691385
vn 1.4861706e-16 0.71393252 0.70021451
vn 0.26796049 0.71393252 0.64691385
vn 0.49512643 0.71393252 0.49512643
vn 0.64691385 0.71393252 0.26796049
vn 0.70021451 0.71393252 -8.9170236e-17
vn 0.64691385 0.71393252 -0.26796049
vn 0.49512643 0.71393252 -0.49512643
vn 0.26796049 0.71393252 -0.64691385
vn 9.9078040e-18 0.71393252 -0.70021451
vn -0.26796049 0.71393252 -0.64691385
vn -0.49512643 0.71393252 -0.49512643
vn -0.64691385 0.71393252 -0.26796049
vn -0.70021451 0.71393252 -3.0835285e-15
vn -0.64691385 0.71393252 0.26796049
vn -0.49512643 0.71393252 0.49512643
vn -0.26796049 0.71393252 0.64691385
vn 1.4861706e-16 0.71393252 0.70021451
vn 0.26796049 0.71393252 0.64691385
vn 0.49512643 0.71393252 0.49512643
vn 0.64691385 0.71393252 0.26796049
vn 0.70021451 0.71393252 -3.2717768e-15
vn 0.64691385 0.71393252 -0.26796049
vn 0.49512643 0.71393252 -0.49512643
vn 0.26796049 0.71393252 -0.64691385
vn 9.9078040e-18 0.71393252 -0.70021451
vn -0.26796049 0.71393252 -0.64691385
vn -0.49512643 0.71393252 -0.49512643
vn 0.84009685 0.54243644 -1.3739784e-16
vn 0.77614828 0.54243644 0.32149114
vn 0.59403818 0.54243644 0.59403818
vn 0.32149114 0.54243644 0.77614828
vn -8.3271419e-18 0.54243644 0.84009685
vn -0.32149114 0.54243644 0.77614828
vn -0.59403818 0.54243644 0.59403818
vn -0.77614828 0.54243644 0.32149114
vn -0.84009685 0.54243644 8.3271419e-17
vn -0.77614828 0.54243644 -0.32149114
vn -0.59403818 0.54243644 -0.59403818
vn -0.32149114 0.54243644 -0.77614828
vn -9.1598561e-17 0.54243644 -0.84009685
vn 0.32149114 0.54243644 -0.77614828
vn 0.59403818 0.54243644 -0.59403818
vn 0.77614828 0.54243644 -0.32149114
vn 0.69061872 0.72321904 -1.1106449e-16
vn 0.63804850 0.72321904 0.26428834
vn 0.48834118 0.72321904 0.48834118
vn 0.26428834 0.72321904 0.63804850
vn -2.2212898e-17 0.72321904 0.69061872
vn -0.26428834 0.72321904 0.63804850
vn -0.48834118 0.72321904 0.48834118
vn -0.63804850 0.72321904 0.26428834
vn -0.69061872 0.72321904 0.0000000e+0
vn -0.63804850 0.72321904 -0.26428834
vn -0.48834118 0.72321904 -0.48834118
vn -0.26428834 0.72321904 -0.63804850
vn -7.4042993e-18 0.72321904 -0.69061872
vn 0.26428834 0.72321904 -0.63804850
vn 0.48834118 0.72321904 -0.48834118
vn 0.63804850 0.72321904 -0.26428834
vn 0.99846847 -5.5323671e-2 -3.3251082e-16
vn 0.92246459 -5.5323671e-2 0.38209734
vn 0.70602383 -5.5323671e-2 0.70602383
vn 0.38209734 -5.5323671e-2 0.92246459
vn -3.1667697e-17 -5.5323671e-2 0.99846847
vn -0.38209734 -5.5323671e-2 0.92246459
vn -0.70602383 -5.5323671e-2 0.70602383
vn -0.92246459 -5.5323671e-2 0.38209734
vn -0.99846847 -5.5323671e-2 -2.2167388e-16
vn -0.92246459 -5.5323671e-2 -0.38209734
vn -0.70602383 -5.5323671e-2 -0.70602383
vn -0.38209734 -5.5323671e-2 -0.92246459
vn 0.0000000e+0 -5.5323671e-2 -0.99846847
vn 0.38209734 -5.5323671e-2 -0.92246459
vn 0.70602383 -5.5323671e-2 -0.70602383
vn 0.92246459 -5.5323671e-2 -0.38209734
vn 0.64027475 0.72091028 0.26521049
vn 0.69302840 0.72091028 -2.2656694e-15
vn 0.64027475 0.72091028 -0.26521049
vn 0.49004508 0.72091028 -0.49004508
vn 0.26521049 0.72091028 -0.64027475
vn 1.0200416e-15 0.72091028 -0.69302840
vn -0.26521049 0.72091028 -0.64027475
vn -0.49004508 0.72091028 -0.49004508
vn -0.64027475 0.72091028 -0.26521049
vn -0.69302840 0.72091028 -2.2754775e-15
vn -0.64027475 0.72091028 0.26521049
vn -0.49004508 0.72091028 0.49004508
vn -0.26521049 0.72091028 0.64027475
vn 9.8080925e-17 0.72091028 0.69302840
vn 0.26521049 0.72091028 0.64027475
vn 0.49004508 0.72091028 0.49004508
vn 0.92383132 1.0216446e-2 0.38266346
vn 0.99994781 1.0216446e-2 1.4574863e-15
vn 0.92383132 1.0216446e-2 -0.38266346
vn 0.70706988 1.0216446e-2 -0.70706988
vn 0.38266346 1.0216446e-2 -0.92383132
vn 1.4433359e-15 1.0216446e-2 -0.99994781
vn -0.38266346 1.0216446e-2 -0.92383132
vn -0.70706988 1.0216446e-2 -0.70706988
vn -0.92383132 1.0216446e-2 -0.38266346
vn -0.99994781 1.0216446e-2 1.3867345e-15
vn -0.92383132 1.0216446e-2 0.38266346
vn -0.70706988 1.0216446e-2 0.70706988
vn -0.38266346 1.0216446e-2 0.92383132
vn 1.4857870e-16 1.0216446e-2 0.99994781
vn 0.38266346 1.0216446e-2 0.92383132
vn 0.70706988 1.0216446e-2 0.70706988
vn 0.82309273 0.45418155 0.34093617
vn 0.89090915 0.45418155 1.5757588e-15
vn 0.82309273 0.45418155 -0.34093617
vn 0.62996790 0.45418155 -0.62996790
vn 0.34093617 0.45418155 -0.82309273
vn 1.2606070e-15 0.45418155 -0.89090915
vn -0.34093617 0.45418155 -0.82309273
vn -0.62996790 0.45418155 -0.62996790
vn -0.82309273 0.45418155 -0.34093617
vn -0.89090915 0.45418155 1.4623042e-15
vn -0.82309273 0.45418155 0.34093617
vn -0.62996790 0.45418155 0.62996790
vn -0.34093617 0.45418155 0.82309273
vn 1.3866677e-16 0.45418155 0.89090915
vn 0.34093617 0.45418155 0.82309273
vn 0.62996790 0.45418155 0.62996790
g Cylinder1_default
usemtl default
s 1
f 115//115 131//131 146//146 130//130
f 115//115 148//148 147//147 116//116
f 116//116 132//132 131//131 115//115
f 116//116 147//147 162//162 117//117
f 117//117 133//133 132//132 116//116
f 117//117 162//162 161//161 118//118
f 118//118 134//134 133//133 117//117
f 118//118 161//161 160//160 119//119
f 119//119 135//135 134//134 118//118
f 119//119 160//160 159//159 120//120
f 120//120 136//136 135//135 119//119
f 120//120 159//159 158//158 121//121
f 121//121 137//137 136//136 120//120
f 121//121 158//158 157//157 122//122
f 122//122 138//138 137//137 121//121
f 122//122 157//157 156//156 123//123
f 123//123 139//139 138//138 122//122
f 123//123 156//156 155//155 124//124
f 124//124 140//140 139//139 123//123
f 124//124 155//155 154//154 125//125
f 125//125 141//141 140//140 124//124
f 125//125 154//154 153//153 126//126
f 126//126 142//142 141//141 125//125
f 126//126 153//153 152//152 127//127
f 127//127 143//143 142//142 126//126
f 127//127 152//152 151//151 128//128
f 128//128 144//144 143//143 127//127
f 128//128 151//151 150//150 129//129
f 129//129 145//145 144//144 128//128
f 129//129 150//150 149//149 130//130
f 130//130 146//146 145//145 129//129
f 130//130 149//149 148//148 115//115
f 131//131 659//659 674//674 146//146
f 132//132 660//660 659//659 131//131
f 133//133 661//661 660//660 132//132
f 134//134 662//662 661//661 133//133
f 135//135 663//663 662//662 134//134
f 136//136 664//664 663//663 135//135
f 137//137 665//665 664//664 136//136
f 138//138 666//666 665//665 137//137
f 139//139 667//667 666//666 138//138
f 140//140 668//668 667//667 139//139
f 141//141 669//669 668//668 140//140
f 142//142 670//670 669//669 141//141
f 143//143 671//671 670//670 142//142
f 144//144 672//672 671//671 143//143
f 145//145 673//673 672//672 144//144
f 146//146 674//674 673//673 145//145
f 147//147 181//181 180//180 163//163
f 147//147 242//242 241//241 162//162
f 148//148 182//182 181//181 147//147
f 148//148 185//185 184//184 164//164
f 149//149 186//186 185//185 148//148
f 149//149 189//189 188//188 165//165
f 150//150 190//190 189//189 149//149
f 150//150 193//193 192//192 166//166
f 151//151 194//194 193//193 150//150
f 151//151 197//197 196//196 167//167
f 152//152 198//198 197//197 151//151
f 152//152 201//201 200//200 168//168
f 153//153 202//202 201//201 152//152
f 153//153 205//205 204//204 169//169
f 154//154 206//206 205//205 153//153
f 154//154 209//209 208//208 170//170
f 155//155 210//210 209//209 154//154
f 155//155 213//213 212//212 171//171
f 156//156 214//214 213//213 155//155
f 156//156 217//217 216//216 172//172
f 157//157 218//218 217//217 156//156
f 157//157 221//221 220//220 173//173
f 158//158 222//222 221//221 157//157
f 158//158 225//225 224//224 174//174
f 159//159 226//226 225//225 158//158
f 159//159 229//229 228//228 175//175
f 160//160 230//230 229//229 159//159
f 160//160 233//233 232//232 176//176
f 161//161 234//234 233//233 160//160
f 161//161 237//237 236//236 177//177
f 162//162 238//238 237//237 161//161
f 162//162 241//241 240//240 178//178
f 163//163 180//180 179//179 164//164
f 163//163 239//239 242//242 147//147
f 163//163 307//307 322//322 178//178
f 164//164 179//179 182//182 148//148
f 164//164 184//184 183//183 165//165
f 164//164 308//308 307//307 163//163
f 165//165 183//183 186//186 149//149
f 165//165 188//188 187//187 166//166
f 165//165 309//309 308//308 164//164
f 166//166 187//187 190//190 150//150
f 166//166 192//192 191//191 167//167
f 166//166 310//310 309//309 165//165
f 167//167 191//191 194//194 151//151
f 167//167 196//196 195//195 168//168
f 167//167 311//311 310//310 166//166
f 168//168 195//195 198//198 152//152
f 168//168 200//200 199//199 169//169
f 168//168 312//312 311//311 167//167
f 169//169 199//199 202//202 153//153
f 169//169 204//204 203//203 170//170
f 169//169 313//313 312//312 168//168
f 170//170 203//203 206//206 154//154
f 170//170 208//208 207//207 171//171
f 170//170 314//314 313//313 169//169
f 171//171 207//207 210//210 155//155
f 171//171 212//212 211//211 172//172
f 171//171 315//315 314//314 170//170
f 172//172 211//211 214//214 156//156
f 172//172 216//216 215//215 173//173
f 172//172 316//316 315//315 171//171
f 173//173 215//215 218//218 157//157
f 173//173 220//220 219//219 174//174
f 173//173 317//317 316//316 172//172
f 174//174 219//219 222//222 158//158
f 174//174 224//224 223//223 175//175
f 174//174 318//318 317//317 173//173
f 175//175 223//223 226//226 159//159
f 175//175 228//228 227//227 176//176
f 175//175 319//319 318//318 174//174
f 176//176 227//227 230//230 160//160
f 176//176 232//232 231//231 177//177
f 176//176 320//320 319//319 175//175
f 177//177 231//231 234//234 161//161
f 177//177 236//236 235//235 178//178
f 177//177 321//321 320//320 176//176
f 178//178 235//235 238//238 162//162
f 178//178 240//240 239//239 163//163
f 178//178 322//322 321//321 177//177
f 179//179 303//303 306//306 182//182
f 180//180 304//304 303//303 179//179
f 181//181 305//305 304//304 180//180
f 182//182 306//306 305//305 181//181
f 183//183 299//299 302//302 186//186
f 184//184 300//300 299//299 183//183
f 185//185 301//301 300//300 184//184
f 186//186 302//302 301//301 185//185
f 187//187 295//295 298//298 190//190
f 188//188 296//296 295//295 187//187
f 189//189 297//297 296//296 188//188
f 190//190 298//298 297//297 189//189
f 191//191 291//291 294//294 194//194
f 192//192 292//292 291//291 191//191
f 193//193 293//293 292//292 192//192
f 194//194 294//294 293//293 193//193
f 195//195 287//287 290//290 198//198
f 196//196 288//288 287//287 195//195
f 197//197 289//289 288//288 196//196
f 198//198 290//290 289//289 197//197
f 199//199 283//283 286//286 202//202
f 200//200 284//284 283//283 199//199
f 201//201 285//285 284//284 200//200
f 202//202 286//286 285//285 201//201
f 203//203 279//279 282//282 206//206
f 204//204 280//280 279//279 203//203
f 205//205 281//281 280//280 204//204
f 206//206 282//282 281//281 205//205
f 207//207 275//275 278//278 210//210
f 208//208 276//276 275//275 207//207
f 209//209 277//277 276//276 208//208
f 210//210 278//278 277//277 209//209
f 211//211 271//271 274//274 214//214
f 212//212 272//272 271//271 211//211
f 213//213 273//273 272//272 212//212
f 214//214 274//274 273//273 213//213
f 215//215 267//267 270//270 218//218
f 216//216 268//268 267//267 215//215
f 217//217 269//269 268//268 216//216
f 218//218 270//270 269//269 217//217
f 219//219 263//263 266//266 222//222
f 220//220 264//264 263//263 219//219
f 221//221 265//265 264//264 220//220
f 222//222 266//266 265//265 221//221
f 223//223 259//259 262//262 226//226
f 224//224 260//260 259//259 223//223
f 225//225 261//261 260//260 224//224
f 226//226 262//262 261//261 225//225
f 227//227 255//255 258//258 230//230
f 228//228 256//256 255//255 227//227
f 229//229 257//257 256//256 228//228
f 230//230 258//258 257//257 229//229
f 231//231 251//251 254//254 234//234
f 232//232 252//252 251//251 231//231
f 233//233 253//253 252//252 232//232
f 234//234 254//254 253//253 233//233
f 235//235 247//247 250//250 238//238
f 236//236 248//248 247//247 235//235
f 237//237 249//249 248//248 236//236
f 238//238 250//250 249//249 237//237
f 239//239 243//243 246//246 242//242
f 240//240 244//244 243//243 239//239
f 241//241 245//245 244//244 240//240
f 242//242 246//246 245//245 241//241
f 244//244 245//245 246//246 243//243
f 248//248 249//249 250//250 247//247
f 252//252 253//253 254//254 251//251
f 256//256 257//257 258//258 255//255
f 260//260 261//261 262//262 259//259
f 264//264 265//265 266//266 263//263
f 268//268 269//269 270//270 267//267
f 272//272 273//273 274//274 271//271
f 276//276 277//277 278//278 275//275
f 280//280 281//281 282//282 279//279
f 284//284 285//285 286//286 283//283
f 288//288 289//289 290//290 287//287
f 292//292 293//293 294//294 291//291
f 296//296 297//297 298//298 295//295
f 300//300 301//301 302//302 299//299
f 304//304 305//305 306//306 303//303
f 307//307 323//323 338//338 322//322
f 308//308 324//324 323//323 307//307
f 309//309 325//325 324//324 308//308
f 310//310 326//326 325//325 309//309
f 311//311 327//327 326//326 310//310
f 312//312 328//328 327//327 311//311
f 313//313 329//329 328//328 312//312
f 314//314 330//330 329//329 313//313
f 315//315 331//331 330//330 314//314
f 316//316 332//332 331//331 315//315
f 317//317 333//333 332//332 316//316
f 318//318 334//334 333//333 317//317
f 319//319 335//335 334//334 318//318
f 320//320 336//336 335//335 319//319
f 321//321 337//337 336//336 320//320
f 322//322 338//338 337//337 321//321
f 323//323 531//531 546//546 338//338
f 324//324 532//532 531//531 323//323
f 325//325 533//533 532//532 324//324
f 326//326 534//534 533//533 325//325
f 327//327 535//535 534//534 326//326
f 328//328 536//536 535//535 327//327
f 329//329 537//537 536//536 328//328
f 330//330 538//538 537//537 329//329
f 331//331 539//539 538//538 330//330
f 332//332 540//540 539//539 331//331
f 333//333 541//541 540//540 332//332
f 334//334 542//542 541//541 333//333
f 335//335 543//543 542//542 334//334
f 336//336 544//544 543//543 335//335
f 337//337 545//545 544//544 336//336
f 338//338 546//546 545//545 337//337
f 339//339 355//355 356//356 340//340
f 339//339 372//372 373//373 354//354
f 340//340 356//356 357//357 341//341
f 340//340 371//371 372//372 339//339
f 341//341 357//357 358//358 342//342
f 341//341 386//386 371//371 340//340
f 342//342 358//358 359//359 343//343
f 342//342 385//385 386//386 341//341
f 343//343 359//359 360//360 344//344
f 343//343 384//384 385//385 342//342
f 344//344 360//360 361//361 345//345
f 344//344 383//383 384//384 343//343
f 345//345 361//361 362//362 346//346
f 345//345 382//382 383//383 344//344
f 346//346 362//362 363//363 347//347
f 346//346 381//381 382//382 345//345
f 347//347 363//363 364//364 348//348
f 347//347 380//380 381//381 346//346
f 348//348 364//364 365//365 349//349
f 348//348 379//379 380//380 347//347
f 349//349 365//365 366//366 350//350
f 349//349 378//378 379//379 348//348
f 350//350 366//366 367//367 351//351
f 350//350 377//377 378//378 349//349
f 351//351 367//367 368//368 352//352
f 351//351 376//376 377//377 350//350
f 352//352 368//368 369//369 353//353
f 352//352 375//375 376//376 351//351
f 353//353 369//369 370//370 354//354
f 353//353 374//374 375//375 352//352
f 354//354 370//370 355//355 339//339
f 354//354 373//373 374//374 353//353
f 355//355 548//548 547//547 356//356
f 356//356 547//547 562//562 357//357
f 357//357 562//562 561//561 358//358
f 358//358 561//561 560//560 359//359
f 359//359 560//560 559//559 360//360
f 360//360 559//559 558//558 361//361
f 361//361 558//558 557//557 362//362
f 362//362 557//557 556//556 363//363
f 363//363 556//556 555//555 364//364
f 364//364 555//555 554//554 365//365
f 365//365 554//554 553//553 366//366
f 366//366 553//553 552//552 367//367
f 367//367 552//552 551//551 368//368
f 368//368 551//551 550//550 369//369
f 369//369 550//550 549//549 370//370
f 370//370 549//549 548//548 355//355
f 371//371 405//405 406//406 372//372
f 371//371 466//466 463//463 387//387
f 372//372 406//406 403//403 388//388
f 372//372 409//409 410//410 373//373
f 373//373 410//410 407//407 389//389
f 373//373 413//413 414//414 374//374
f 374//374 414//414 411//411 390//390
f 374//374 417//417 418//418 375//375
f 375//375 418//418 415//415 391//391
f 375//375 421//421 422//422 376//376
f 376//376 422//422 419//419 392//392
f 376//376 425//425 426//426 377//377
f 377//377 426//426 423//423 393//393
f 377//377 429//429 430//430 378//378
f 378//378 430//430 427//427 394//394
f 378//378 433//433 434//434 379//379
f 379//379 434//434 431//431 395//395
f 379//379 437//437 438//438 380//380
f 380//380 438//438 435//435 396//396
f 380//380 441//441 442//442 381//381
f 381//381 442//442 439//439 397//397
f 381//381 445//445 446//446 382//382
f 382//382 446//446 443//443 398//398
f 382//382 449//449 450//450 383//383
f 383//383 450//450 447//447 399//399
f 383//383 453//453 454//454 384//384
f 384//384 454//454 451//451 400//400
f 384//384 457//457 458//458 385//385
f 385//385 458//458 455//455 401//401
f 385//385 461//461 462//462 386//386
f 386//386 462//462 459//459 402//402
f 386//386 465//465 466//466 371//371
f 387//387 404//404 405//405 371//371
f 387//387 463//463 464//464 402//402
f 387//387 531//531 532//532 388//388
f 388//388 403//403 404//404 387//387
f 388//388 408//408 409//409 372//372
f 388//388 532//532 533//533 389//389
f 389//389 407//407 408//408 388//388
f 389//389 412//412 413//413 373//373
f 389//389 533//533 534//534 390//390
f 390//390 411//411 412//412 389//389
f 390//390 416//416 417//417 374//374
f 390//390 534//534 535//535 391//391
f 391//391 415//415 416//416 390//390
f 391//391 420//420 421//421 375//375
f 391//391 535//535 536//536 392//392
f 392//392 419//419 420//420 391//391
f 392//392 424//424 425//425 376//376
f 392//392 536//536 537//537 393//393
f 393//393 423//423 424//424 392//392
f 393//393 428//428 429//429 377//377
f 393//393 537//537 538//538 394//394
f 394//394 427//427 428//428 393//393
f 394//394 432//432 433//433 378//378
f 394//394 538//538 539//539 395//395
f 395//395 431//431 432//432 394//394
f 395//395 436//436 437//437 379//379
f 395//395 539//539 540//540 396//396
f 396//396 435//435 436//436 395//395
f 396//396 440//440 441//441 380//380
f 396//396 540//540 541//541 397//397
f 397//397 439//439 440//440 396//396
f 397//397 444//444 445//445 381//381
f 397//397 541//541 542//542 398//398
f 398//398 443//443 444//444 397//397
f 398//398 448//448 449//449 382//382
f 398//398 542//542 543//543 399//399
f 399//399 447//447 448//448 398//398
f 399//399 452//452 453//453 383//383
f 399//399 543//543 544//544 400//400
f 400//400 451//451 452//452 399//399
f 400//400 456//456 457//457 384//384
f 400//400 544//544 545//545 401//401
f 401//401 455//455 456//456 400//400
f 401//401 460//460 461//461 385//385
f 401//401 545//545 546//546 402//402
f 402//402 459//459 460//460 401//401
f 402//402 464//464 465//465 386//386
f 402//402 546//546 531//531 387//387
f 403//403 527//527 528//528 404//404
f 404//404 528//528 529//529 405//405
f 405//405 529//529 530//530 406//406
f 406//406 530//530 527//527 403//403
f 407//407 523//523 524//524 408//408
f 408//408 524//524 525//525 409//409
f 409//409 525//525 526//526 410//410
f 410//410 526//526 523//523 407//407
f 411//411 519//519 520//520 412//412
f 412//412 520//520 521//521 413//413
f 413//413 521//521 522//522 414//414
f 414//414 522//522 519//519 411//411
f 415//415 515//515 516//516 416//416
f 416//416 516//516 517//517 417//417
f 417//417 517//517 518//518 418//418
f 418//418 518//518 515//515 415//415
f 419//419 511//511 512//512 420//420
f 420//420 512//512 513//513 421//421
f 421//421 513//513 514//514 422//422
f 422//422 514//514 511//511 419//419
f 423//423 507//507 508//508 424//424
f 424//424 508//508 509//509 425//425
f 425//425 509//509 510//510 426//426
f 426//426 510//510 507//507 423//423
f 427//427 503//503 504//504 428//428
f 428//428 504//504 505//505 429//429
f 429//429 505//505 506//506 430//430
f 430//430 506//506 503//503 427//427
f 431//431 499//499 500//500 432//432
f 432//432 500//500 501//501 433//433
f 433//433 501//501 502//502 434//434
f 434//434 502//502 499//499 431//431
f 435//435 495//495 496//496 436//436
f 436//436 496//496 497//497 437//437
f 437//437 497//497 498//498 438//438
f 438//438 498//498 495//495 435//435
f 439//439 491//491 492//492 440//440
f 440//440 492//492 493//493 441//441
f 441//441 493//493 494//494 442//442
f 442//442 494//494 491//491 439//439
f 443//443 487//487 488//488 444//444
f 444//444 488//488 489//489 445//445
f 445//445 489//489 490//490 446//446
f 446//446 490//490 487//487 443//443
f 447//447 483//483 484//484 448//448
f 448//448 484//484 485//485 449//449
f 449//449 485//485 486//486 450//450
f 450//450 486//486 483//483 447//447
f 451//451 479//479 480//480 452//452
f 452//452 480//480 481//481 453//453
f 453//453 481//481 482//482 454//454
f 454//454 482//482 479//479 451//451
f 455//455 475//475 476//476 456//456
f 456//456 476//476 477//477 457//457
f 457//457 477//477 478//478 458//458
f 458//458 478//478 475//475 455//455
f 459//459 471//471 472//472 460//460
f 460//460 472//472 473//473 461//461
f 461//461 473//473 474//474 462//462
f 462//462 474//474 471//471 459//459
f 463//463 467//467 468//468 464//464
f 464//464 468//468 469//469 465//465
f 465//465 469//469 470//470 466//466
f 466//466 470//470 467//467 463//463
f 467//467 470//470 469//469 468//468
f 471//471 474//474 473//473 472//472
f 475//475 478//478 477//477 476//476
f 479//479 482//482 481//481 480//480
f 483//483 486//486 485//485 484//484
f 487//487 490//490 489//489 488//488
f 491//491 494//494 493//493 492//492
f 495//495 498//498 497//497 496//496
f 499//499 502//502 501//501 500//500
f 503//503 506//506 505//505 504//504
f 507//507 510//510 509//509 508//508
f 511//511 514//514 513//513 512//512
f 515//515 518//518 517//517 516//516
f 519//519 522//522 521//521 520//520
f 523//523 526//526 525//525 524//524
f 527//527 530//530 529//529 528//528
f 547//547 563//563 578//578 562//562
f 548//548 564//564 563//563 547//547
f 549//549 565//565 564//564 548//548
f 550//550 566//566 565//565 549//549
f 551//551 567//567 566//566 550//550
f 552//552 568//568 567//567 551//551
f 553//553 569//569 568//568 552//552
f 554//554 570//570 569//569 553//553
f 555//555 571//571 570//570 554//554
f 556//556 572//572 571//571 555//555
f 557//557 573//573 572//572 556//556
f 558//558 574//574 573//573 557//557
f 559//559 575//575 574//574 558//558
f 560//560 576//576 575//575 559//559
f 561//561 577//577 576//576 560//560
f 562//562 578//578 577//577 561//561
f 563//563 579//579 594//594 578//578
f 564//564 580//580 579//579 563//563
f 565//565 581//581 580//580 564//564
f 566//566 582//582 581//581 565//565
f 567//567 583//583 582//582 566//566
f 568//568 584//584 583//583 567//567
f 569//569 585//585 584//584 568//568
f 570//570 586//586 585//585 569//569
f 571//571 587//587 586//586 570//570
f 572//572 588//588 587//587 571//571
f 573//573 589//589 588//588 572//572
f 574//574 590//590 589//589 573//573
f 575//575 591//591 590//590 574//574
f 576//576 592//592 591//591 575//575
f 577//577 593//593 592//592 576//576
f 578//578 594//594 593//593 577//577
f 579//579 595//595 610//610 594//594
f 580//580 596//596 595//595 579//579
f 581//581 597//597 596//596 580//580
f 582//582 598//598 597//597 581//581
f 583//583 599//599 598//598 582//582
f 584//584 600//600 599//599 583//583
f 585//585 601//601 600//600 584//584
f 586//586 602//602 601//601 585//585
f 587//587 603//603 602//602 586//586
f 588//588 604//604 603//603 587//587
f 589//589 605//605 604//604 588//588
f 590//590 606//606 605//605 589//589
f 591//591 607//607 606//606 590//590
f 592//592 608//608 607//607 591//591
f 593//593 609//609 608//608 592//592
f 594//594 610//610 609//609 593//593
f 595//595 611//611 626//626 610//610
f 596//596 612//612 611//611 595//595
f 597//597 613//613 612//612 596//596
f 598//598 614//614 613//613 597//597
f 599//599 615//615 614//614 598//598
f 600//600 616//616 615//615 599//599
f 601//601 617//617 616//616 600//600
f 602//602 618//618 617//617 601//601
f 603//603 619//619 618//618 602//602
f 604//604 620//620 619//619 603//603
f 605//605 621//621 620//620 604//604
f 606//606 622//622 621//621 605//605
f 607//607 623//623 622//622 606//606
f 608//608 624//624 623//623 607//607
f 609//609 625//625 624//624 608//608
f 610//610 626//626 625//625 609//609
f 611//611 627//627 642//642 626//626
f 612//612 628//628 627//627 611//611
f 613//613 629//629 628//628 612//612
f 614//614 630//630 629//629 613//613
f 615//615 631//631 630//630 614//614
f 616//616 632//632 631//631 615//615
f 617//617 633//633 632//632 616//616
f 618//618 634//634 633//633 617//617
f 619//619 635//635 634//634 618//618
f 620//620 636//636 635//635 619//619
f 621//621 637//637 636//636 620//620
f 622//622 638//638 637//637 621//621
f 623//623 639//639 638//638 622//622
f 624//624 640//640 639//639 623//623
f 625//625 641//641 640//640 624//624
f 626//626 642//642 641//641 625//625
f 627//627 643//643 658//658 642//642
f 628//628 644//644 643//643 627//627
f 629//629 645//645 644//644 628//628
f 630//630 646//646 645//645 629//629
f 631//631 647//647 646//646 630//630
f 632//632 648//648 647//647 631//631
f 633//633 649//649 648//648 632//632
f 634//634 650//650 649//649 633//633
f 635//635 651//651 650//650 634//634
f 636//636 652//652 651//651 635//635
f 637//637 653//653 652//652 636//636
f 638//638 654//654 653//653 637//637
f 639//639 655//655 654//654 638//638
f 640//640 656//656 655//655 639//639
f 641//641 657//657 656//656 640//640
f 642//642 658//658 657//657 641//641
f 643//643 707//707 722//722 658//658
f 644//644 708//708 707//707 643//643
f 645//645 709//709 708//708 644//644
f 646//646 710//710 709//709 645//645
f 647//647 711//711 710//710 646//646
f 648//648 712//712 711//711 647//647
f 649//649 713//713 712//712 648//648
f 650//650 714//714 713//713 649//649
f 651//651 715//715 714//714 650//650
f 652//652 716//716 715//715 651//651
f 653//653 717//717 716//716 652//652
f 654//654 718//718 717//717 653//653
f 655//655 719//719 718//718 654//654
f 656//656 720//720 719//719 655//655
f 657//657 721//721 720//720 656//656
f 658//658 722//722 721//721 657//657
f 659//659 675//675 690//690 674//674
f 660//660 676//676 675//675 659//659
f 661//661 677//677 676//676 660//660
f 662//662 678//678 677//677 661//661
f 663//663 679//679 678//678 662//662
f 664//664 680//680 679//679 663//663
f 665//665 681//681 680//680 664//664
f 666//666 682//682 681//681 665//665
f 667//667 683//683 682//682 666//666
f 668//668 684//684 683//683 667//667
f 669//669 685//685 684//684 668//668
f 670//670 686//686 685//685 669//669
f 671//671 687//687 686//686 670//670
f 672//672 688//688 687//687 671//671
f 673//673 689//689 688//688 672//672
f 674//674 690//690 689//689 673//673
f 675//675 691//691 706//706 690//690
f 676//676 692//692 691//691 675//675
f 677//677 693//693 692//692 676//676
f 678//678 694//694 693//693 677//677
f 679//679 695//695 694//694 678//678
f 680//680 696//696 695//695 679//679
f 681//681 697//697 696//696 680//680
f 682//682 698//698 697//697 681//681
f 683//683 699//699 698//698 682//682
f 684//684 700//700 699//699 683//683
f 685//685 701//701 700//700 684//684
f 686//686 702//702 701//701 685//685
f 687//687 703//703 702//702 686//686
f 688//688 704//704 703//703 687//687
f 689//689 705//705 704//704 688//688
f 690//690 706//706 705//705 689//689
f 692//692 693//693 694//694 695//695 696//696 697//697 698//698 699//699 700//700 701//701 702//702 703//703 704//704 705//705 706//706 691//691
f 707//707 723//723 738//738 722//722
f 708//708 724//724 723//723 707//707
f 709//709 725//725 724//724 708//708
f 710//710 726//726 725//725 709//709
f 711//711 727//727 726//726 710//710
f 712//712 728//728 727//727 711//711
f 713//713 729//729 728//728 712//712
f 714//714 730//730 729//729 713//713
f 715//715 731//731 730//730 714//714
f 716//716 732//732 731//731 715//715
f 717//717 733//733 732//732 716//716
f 718//718 734//734 733//733 717//717
f 719//719 735//735 734//734 718//718
f 720//720 736//736 735//735 719//719
f 721//721 737//737 736//736 720//720
f 722//722 738//738 737//737 721//721
f 723//723 739//739 754//754 738//738
f 724//724 740//740 739//739 723//723
f 725//725 741//741 740//740 724//724
f 726//726 742//742 741//741 725//725
f 727//727 743//743 742//742 726//726
f 728//728 744//744 743//743 727//727
f 729//729 745//745 744//744 728//728
f 730//730 746//746 745//745 729//729
f 731//731 747//747 746//746 730//730
f 732//732 748//748 747//747 731//731
f 733//733 749//749 748//748 732//732
f 734//734 750//750 749//749 733//733
f 735//735 751//751 750//750 734//734
f 736//736 752//752 751//751 735//735
f 737//737 753//753 752//752 736//736
f 738//738 754//754 753//753 737//737
f 740//740 741//741 742//742 743//743 744//744 745//745 746//746 747//747 748//748 749//749 750//750 751//751 752//752 753//753 754//754 739//739
